<svg width="308" height="234" viewBox="0 0 308 234" fill="none" xmlns="http://www.w3.org/2000/svg">
<path d="M190.586 61.8807C190.326 61.8879 190.074 61.7936 189.88 61.6171C189.686 61.4406 189.565 61.1952 189.542 60.9306C189.542 60.6931 189.542 60.5743 189.658 60.4556L196.965 49.8858C200.561 44.6602 201.025 44.1852 201.025 38.8409V2.14344C201.023 1.87786 201.073 1.61462 201.172 1.36895C201.27 1.12329 201.415 0.900097 201.599 0.712305C201.782 0.524513 202 0.375858 202.24 0.274954C202.48 0.174051 202.737 0.122904 202.997 0.12448H209.028C209.547 0.139439 210.04 0.356952 210.406 0.732386C210.773 1.10782 210.985 1.6127 211 2.14344V40.1473C211 45.6103 209.376 47.8668 206.128 52.7361L199.981 61.2869C199.823 61.5132 199.614 61.6965 199.372 61.8207C199.129 61.9449 198.86 62.0063 198.589 61.9995H190.586V61.8807Z" fill="#2A6EBB"/>
<path d="M135.142 22.5715C135.166 22.3915 135.248 22.2246 135.374 22.0965C136.964 21.0811 138.27 19.6612 139.164 17.9753C140.058 16.2894 140.511 14.395 140.477 12.4768C140.477 3.92591 133.286 0.0067621 126.675 0.0067621H109.972C109.713 0.00518596 109.455 0.0563315 109.215 0.157235C108.976 0.258139 108.758 0.406794 108.574 0.594586C108.391 0.782378 108.246 1.00557 108.147 1.25123C108.048 1.4969 107.998 1.76014 108 2.02572V43.8299C108.015 44.3607 108.227 44.8656 108.594 45.241C108.96 45.6164 109.454 45.8339 109.972 45.8489H127.718C134.446 45.8489 141.753 41.811 141.753 33.6164C141.789 31.384 141.195 29.1886 140.043 27.293C138.891 25.3973 137.229 23.8818 135.258 22.9278C135.374 23.0466 135.142 22.8091 135.142 22.5715ZM117.975 8.67639C117.975 8.39291 118.085 8.12104 118.281 7.92059C118.477 7.72014 118.742 7.60753 119.019 7.60753H123.079C125.747 7.60753 130.154 8.20134 130.154 13.0706C130.154 17.7023 125.283 18.4149 123.311 18.4149H119.019C118.742 18.4149 118.477 18.3023 118.281 18.1018C118.085 17.9014 117.975 17.6295 117.975 17.346V8.67639ZM126.907 38.0106C125.79 38.1529 124.667 38.2322 123.543 38.2481H118.903C118.626 38.2481 118.361 38.1355 118.165 37.9351C117.969 37.7346 117.859 37.4627 117.859 37.1793V28.1534C117.859 27.8699 117.969 27.598 118.165 27.3976C118.361 27.1971 118.626 27.0845 118.903 27.0845H123.775C124.822 27.1001 125.868 27.1795 126.907 27.322C128.147 27.5454 129.266 28.2225 130.055 29.2274C130.845 30.2323 131.251 31.4966 131.198 32.7851C131.167 34.0251 130.725 35.2173 129.945 36.1667C129.166 37.116 128.094 37.7662 126.907 38.0106Z" fill="#2A6EBB"/>
<path d="M178.754 18.6523C178.87 18.5336 178.986 18.4148 179.102 18.4148C179.223 18.4231 179.336 18.4758 179.421 18.5632C179.507 18.6505 179.558 18.7666 179.566 18.8898V43.8298C179.565 44.0954 179.615 44.3587 179.713 44.6043C179.812 44.85 179.957 45.0732 180.14 45.261C180.324 45.4488 180.542 45.5974 180.782 45.6983C181.022 45.7992 181.279 45.8504 181.538 45.8488H187.57C188.088 45.8338 188.581 45.6163 188.948 45.2409C189.314 44.8655 189.527 44.3606 189.542 43.8298V2.02563C189.543 1.76006 189.493 1.49681 189.395 1.25115C189.296 1.00549 189.151 0.782296 188.967 0.594504C188.784 0.406712 188.566 0.258056 188.326 0.157153C188.086 0.0562491 187.829 0.0051036 187.57 0.00667975H181.19C180.862 0.003668 180.538 0.0900395 180.253 0.256967C179.967 0.423894 179.731 0.665391 179.566 0.956776L169.475 15.327C169.359 15.4457 169.243 15.5645 169.127 15.5645C169.011 15.5645 168.779 15.4457 168.779 15.327L158.804 0.956776C158.64 0.665391 158.403 0.423894 158.117 0.256967C157.832 0.0900395 157.509 0.003668 157.18 0.00667975H151.033C150.747 -0.0167356 150.46 0.0215675 150.19 0.119102C149.92 0.216636 149.673 0.371221 149.466 0.572817C149.258 0.774413 149.094 1.01851 148.984 1.28926C148.874 1.56002 148.821 1.85137 148.829 2.1444V43.9486C148.827 44.2142 148.877 44.4774 148.976 44.7231C149.074 44.9688 149.219 45.1919 149.403 45.3797C149.586 45.5675 149.804 45.7162 150.044 45.8171C150.284 45.918 150.541 45.9691 150.801 45.9676H156.716C156.975 45.9691 157.233 45.918 157.473 45.8171C157.712 45.7162 157.93 45.5675 158.114 45.3797C158.297 45.1919 158.442 44.9688 158.541 44.7231C158.64 44.4774 158.69 44.2142 158.688 43.9486V19.0086C158.696 18.8853 158.748 18.7693 158.833 18.682C158.918 18.5946 159.032 18.5419 159.152 18.5335C159.268 18.5335 159.5 18.6523 159.5 18.7711L166.807 29.4596C166.996 29.7178 167.242 29.9273 167.523 30.0716C167.805 30.2159 168.116 30.291 168.431 30.291H169.591C169.906 30.291 170.217 30.2159 170.499 30.0716C170.781 29.9273 171.026 29.7178 171.215 29.4596L178.754 18.6523Z" fill="#2A6EBB"/>
<path d="M28.4043 117V88.9863H37.1406C40.3672 88.9863 42.7529 89.7041 44.2979 91.1396C45.8564 92.5615 46.6357 94.6738 46.6357 97.4766C46.6357 100.197 45.8154 102.255 44.1748 103.649C42.5342 105.044 40.1484 105.741 37.0176 105.741H31.7676V117H28.4043ZM31.7676 102.809H37.2637C38.9727 102.809 40.3604 102.392 41.4268 101.558C42.4932 100.71 43.0264 99.3223 43.0264 97.3945C43.0264 95.4668 42.5205 94.0654 41.5088 93.1904C40.4971 92.3154 39.0684 91.8779 37.2227 91.8779H31.7676V102.809ZM49.4453 111.196C49.4453 109.774 49.8281 108.605 50.5938 107.689C51.3594 106.76 52.3301 106.021 53.5059 105.475C54.6816 104.928 55.9805 104.545 57.4023 104.326C58.8379 104.094 60.2324 103.978 61.5859 103.978V103.731C61.5859 102.05 61.2236 100.847 60.499 100.122C59.7881 99.3838 58.7627 99.0146 57.4229 99.0146C56.4932 99.0146 55.6455 99.2197 54.8799 99.6299C54.1143 100.04 53.4648 100.58 52.9316 101.25L50.6553 99.6504C51.4619 98.5566 52.4189 97.7568 53.5264 97.251C54.6338 96.7314 56.0283 96.4717 57.71 96.4717C59.9521 96.4717 61.6953 97.0459 62.9395 98.1943C64.1836 99.3291 64.8057 101.243 64.8057 103.937V117H61.873L61.709 115.277C61.0117 115.975 60.2051 116.515 59.2891 116.897C58.3867 117.28 57.3887 117.472 56.2949 117.472C55.4336 117.472 54.5859 117.335 53.752 117.062C52.918 116.802 52.1865 116.412 51.5576 115.893C50.9287 115.373 50.416 114.724 50.0195 113.944C49.6367 113.151 49.4453 112.235 49.4453 111.196ZM52.7266 111.237C52.7266 111.88 52.8496 112.427 53.0957 112.878C53.3418 113.329 53.6562 113.705 54.0391 114.006C54.4219 114.293 54.8389 114.505 55.29 114.642C55.7549 114.765 56.2129 114.826 56.6641 114.826C57.6484 114.826 58.5508 114.621 59.3711 114.211C60.2051 113.801 60.9434 113.315 61.5859 112.755V106.541C60.6562 106.568 59.6719 106.637 58.6328 106.746C57.6074 106.855 56.6504 107.074 55.7617 107.402C54.8867 107.73 54.1621 108.202 53.5879 108.817C53.0137 109.433 52.7266 110.239 52.7266 111.237ZM69.0508 113.596L71.5732 112.037C72.0518 112.939 72.6602 113.637 73.3984 114.129C74.1367 114.621 75.1348 114.867 76.3926 114.867C79.1406 114.867 80.5146 113.883 80.5146 111.914C80.5146 111.326 80.4189 110.834 80.2275 110.438C80.0498 110.027 79.7559 109.665 79.3457 109.351C78.9492 109.022 78.4297 108.715 77.7871 108.428C77.1445 108.127 76.3584 107.806 75.4287 107.464C74.417 107.122 73.5625 106.767 72.8652 106.397C72.168 106.015 71.5938 105.604 71.1426 105.167C70.6914 104.716 70.3633 104.21 70.1582 103.649C69.9531 103.089 69.8506 102.426 69.8506 101.66C69.8506 100.033 70.4453 98.7617 71.6348 97.8457C72.8242 96.9297 74.3965 96.4717 76.3516 96.4717C77.9785 96.4717 79.3389 96.7451 80.4326 97.292C81.5264 97.8252 82.4492 98.5977 83.2012 99.6094L80.9248 101.414C80.3643 100.744 79.708 100.19 78.9561 99.7529C78.2041 99.3018 77.3496 99.0762 76.3926 99.0762C75.2168 99.0762 74.3418 99.3086 73.7676 99.7734C73.1934 100.225 72.9062 100.785 72.9062 101.455C72.9062 101.879 72.9814 102.255 73.1318 102.583C73.2959 102.897 73.5693 103.191 73.9521 103.465C74.3486 103.725 74.8613 103.991 75.4902 104.265C76.1191 104.524 76.9258 104.818 77.9102 105.146C79.7559 105.789 81.1504 106.603 82.0938 107.587C83.0508 108.571 83.5293 109.877 83.5293 111.504C83.5293 112.461 83.3447 113.309 82.9756 114.047C82.6201 114.785 82.1279 115.407 81.499 115.913C80.8701 116.419 80.1182 116.802 79.2432 117.062C78.3818 117.335 77.4316 117.472 76.3926 117.472C74.4102 117.472 72.8584 117.109 71.7373 116.385C70.6162 115.646 69.7207 114.717 69.0508 113.596ZM86.3594 113.596L88.8818 112.037C89.3604 112.939 89.9688 113.637 90.707 114.129C91.4453 114.621 92.4434 114.867 93.7012 114.867C96.4492 114.867 97.8232 113.883 97.8232 111.914C97.8232 111.326 97.7275 110.834 97.5361 110.438C97.3584 110.027 97.0645 109.665 96.6543 109.351C96.2578 109.022 95.7383 108.715 95.0957 108.428C94.4531 108.127 93.667 107.806 92.7373 107.464C91.7256 107.122 90.8711 106.767 90.1738 106.397C89.4766 106.015 88.9023 105.604 88.4512 105.167C88 104.716 87.6719 104.21 87.4668 103.649C87.2617 103.089 87.1592 102.426 87.1592 101.66C87.1592 100.033 87.7539 98.7617 88.9434 97.8457C90.1328 96.9297 91.7051 96.4717 93.6602 96.4717C95.2871 96.4717 96.6475 96.7451 97.7412 97.292C98.835 97.8252 99.7578 98.5977 100.51 99.6094L98.2334 101.414C97.6729 100.744 97.0166 100.19 96.2646 99.7529C95.5127 99.3018 94.6582 99.0762 93.7012 99.0762C92.5254 99.0762 91.6504 99.3086 91.0762 99.7734C90.502 100.225 90.2148 100.785 90.2148 101.455C90.2148 101.879 90.29 102.255 90.4404 102.583C90.6045 102.897 90.8779 103.191 91.2607 103.465C91.6572 103.725 92.1699 103.991 92.7988 104.265C93.4277 104.524 94.2344 104.818 95.2188 105.146C97.0645 105.789 98.459 106.603 99.4023 107.587C100.359 108.571 100.838 109.877 100.838 111.504C100.838 112.461 100.653 113.309 100.284 114.047C99.9287 114.785 99.4365 115.407 98.8076 115.913C98.1787 116.419 97.4268 116.802 96.5518 117.062C95.6904 117.335 94.7402 117.472 93.7012 117.472C91.7188 117.472 90.167 117.109 89.0459 116.385C87.9248 115.646 87.0293 114.717 86.3594 113.596ZM102.191 96.9639H105.678L110.21 112.037L115.132 96.9639H116.978L121.94 112.037L126.473 96.9639H129.959L123.314 117H120.792L116.055 102.542L111.338 117H108.836L102.191 96.9639ZM131.887 106.869C131.887 105.557 132.078 104.278 132.461 103.034C132.844 101.79 133.425 100.683 134.204 99.7119C134.983 98.7275 135.954 97.9414 137.116 97.3535C138.278 96.7656 139.646 96.4717 141.218 96.4717C142.763 96.4717 144.123 96.7725 145.299 97.374C146.475 97.9756 147.445 98.7686 148.211 99.7529C148.977 100.724 149.558 101.838 149.954 103.096C150.351 104.354 150.549 105.646 150.549 106.972C150.549 108.284 150.351 109.569 149.954 110.827C149.558 112.085 148.977 113.206 148.211 114.19C147.445 115.161 146.475 115.954 145.299 116.569C144.123 117.171 142.763 117.472 141.218 117.472C139.673 117.472 138.312 117.178 137.137 116.59C135.988 115.975 135.024 115.168 134.245 114.17C133.466 113.172 132.878 112.037 132.481 110.766C132.085 109.494 131.887 108.195 131.887 106.869ZM135.086 106.869C135.086 107.881 135.209 108.865 135.455 109.822C135.715 110.779 136.098 111.634 136.604 112.386C137.137 113.11 137.786 113.705 138.552 114.17C139.317 114.635 140.206 114.867 141.218 114.867C142.257 114.867 143.159 114.635 143.925 114.17C144.69 113.705 145.333 113.104 145.853 112.365C146.372 111.613 146.755 110.766 147.001 109.822C147.261 108.865 147.391 107.895 147.391 106.91C147.391 105.926 147.261 104.962 147.001 104.019C146.755 103.075 146.372 102.234 145.853 101.496C145.333 100.744 144.69 100.143 143.925 99.6914C143.159 99.2402 142.257 99.0146 141.218 99.0146C140.179 99.0146 139.27 99.2402 138.49 99.6914C137.725 100.143 137.089 100.744 136.583 101.496C136.091 102.234 135.715 103.075 135.455 104.019C135.209 104.948 135.086 105.898 135.086 106.869ZM155.368 117V96.9639H158.321L158.567 98.7275C159.101 98.167 159.784 97.6543 160.618 97.1895C161.466 96.7109 162.32 96.4717 163.182 96.4717C163.797 96.4717 164.364 96.5127 164.884 96.5947C165.403 96.6768 165.807 96.7588 166.094 96.8408L165.499 99.8145C164.829 99.5137 163.988 99.3633 162.977 99.3633C162.936 99.3633 162.895 99.3633 162.854 99.3633C162.047 99.3633 161.268 99.5889 160.516 100.04C159.777 100.478 159.142 100.936 158.608 101.414V117H155.368ZM167.939 106.787C167.939 105.502 168.145 104.237 168.555 102.993C168.965 101.749 169.566 100.648 170.359 99.6914C171.152 98.7207 172.15 97.9414 173.354 97.3535C174.557 96.7656 175.958 96.4717 177.558 96.4717C178.569 96.4717 179.438 96.5469 180.162 96.6973C180.887 96.8477 181.502 97.0186 182.008 97.21V88.9863H185.248V117H182.274L182.008 115.359C181.283 116.111 180.49 116.651 179.629 116.979C178.781 117.308 177.852 117.472 176.84 117.472C175.418 117.472 174.153 117.198 173.046 116.651C171.938 116.104 171.009 115.353 170.257 114.396C169.505 113.438 168.931 112.311 168.534 111.012C168.138 109.713 167.939 108.305 167.939 106.787ZM171.139 106.972C171.139 108.093 171.262 109.139 171.508 110.109C171.768 111.066 172.15 111.894 172.656 112.591C173.176 113.288 173.818 113.842 174.584 114.252C175.363 114.662 176.286 114.867 177.353 114.867C178.187 114.867 179.007 114.689 179.813 114.334C180.634 113.979 181.365 113.397 182.008 112.591V100.04C181.844 99.9307 181.611 99.8213 181.311 99.7119C181.023 99.5889 180.695 99.4795 180.326 99.3838C179.971 99.2881 179.595 99.2129 179.198 99.1582C178.802 99.1035 178.426 99.0762 178.07 99.0762C176.895 99.0762 175.869 99.3018 174.994 99.7529C174.133 100.19 173.415 100.785 172.841 101.537C172.267 102.275 171.836 103.123 171.549 104.08C171.275 105.023 171.139 105.987 171.139 106.972ZM199.85 117V88.9863H208.832C211.963 88.9863 214.273 89.6904 215.764 91.0986C217.254 92.4932 217.999 94.3389 217.999 96.6357C217.999 97.8662 217.821 98.9395 217.466 99.8555C217.11 100.758 216.618 101.523 215.989 102.152C215.36 102.781 214.615 103.294 213.754 103.69C212.906 104.073 211.997 104.354 211.026 104.531L218.655 117H214.841L207.273 104.736H203.213V117H199.85ZM203.213 101.845H208.627C212.523 101.845 214.472 100.108 214.472 96.6357C214.472 95.0361 213.993 93.8467 213.036 93.0674C212.079 92.2744 210.705 91.8779 208.914 91.8779H203.213V101.845ZM221.506 106.869C221.506 105.27 221.725 103.834 222.162 102.562C222.6 101.291 223.201 100.204 223.967 99.3018C224.732 98.3857 225.669 97.6885 226.776 97.21C227.884 96.7178 229.107 96.4717 230.447 96.4717C231.938 96.4717 233.236 96.7246 234.344 97.2305C235.451 97.7227 236.367 98.4268 237.092 99.3428C237.816 100.245 238.363 101.339 238.732 102.624C239.102 103.896 239.286 105.283 239.286 106.787H224.705C224.705 109.303 225.279 111.278 226.428 112.714C227.576 114.149 229.244 114.867 231.432 114.867C232.689 114.867 233.749 114.56 234.61 113.944C235.485 113.315 236.189 112.557 236.723 111.668L238.855 113.104C238.131 114.361 237.188 115.407 236.025 116.241C234.863 117.062 233.298 117.472 231.329 117.472C229.812 117.472 228.451 117.239 227.248 116.774C226.059 116.31 225.033 115.64 224.172 114.765C223.324 113.876 222.668 112.775 222.203 111.463C221.738 110.137 221.506 108.605 221.506 106.869ZM224.992 104.224H235.615C235.588 103.362 235.417 102.604 235.103 101.947C234.802 101.291 234.412 100.744 233.934 100.307C233.469 99.8691 232.922 99.5479 232.293 99.3428C231.678 99.124 231.062 99.0146 230.447 99.0146C229.107 99.0146 227.952 99.418 226.981 100.225C226.024 101.018 225.361 102.351 224.992 104.224ZM242.383 113.596L244.905 112.037C245.384 112.939 245.992 113.637 246.73 114.129C247.469 114.621 248.467 114.867 249.725 114.867C252.473 114.867 253.847 113.883 253.847 111.914C253.847 111.326 253.751 110.834 253.56 110.438C253.382 110.027 253.088 109.665 252.678 109.351C252.281 109.022 251.762 108.715 251.119 108.428C250.477 108.127 249.69 107.806 248.761 107.464C247.749 107.122 246.895 106.767 246.197 106.397C245.5 106.015 244.926 105.604 244.475 105.167C244.023 104.716 243.695 104.21 243.49 103.649C243.285 103.089 243.183 102.426 243.183 101.66C243.183 100.033 243.777 98.7617 244.967 97.8457C246.156 96.9297 247.729 96.4717 249.684 96.4717C251.311 96.4717 252.671 96.7451 253.765 97.292C254.858 97.8252 255.781 98.5977 256.533 99.6094L254.257 101.414C253.696 100.744 253.04 100.19 252.288 99.7529C251.536 99.3018 250.682 99.0762 249.725 99.0762C248.549 99.0762 247.674 99.3086 247.1 99.7734C246.525 100.225 246.238 100.785 246.238 101.455C246.238 101.879 246.313 102.255 246.464 102.583C246.628 102.897 246.901 103.191 247.284 103.465C247.681 103.725 248.193 103.991 248.822 104.265C249.451 104.524 250.258 104.818 251.242 105.146C253.088 105.789 254.482 106.603 255.426 107.587C256.383 108.571 256.861 109.877 256.861 111.504C256.861 112.461 256.677 113.309 256.308 114.047C255.952 114.785 255.46 115.407 254.831 115.913C254.202 116.419 253.45 116.802 252.575 117.062C251.714 117.335 250.764 117.472 249.725 117.472C247.742 117.472 246.19 117.109 245.069 116.385C243.948 115.646 243.053 114.717 242.383 113.596ZM260.143 106.869C260.143 105.27 260.361 103.834 260.799 102.562C261.236 101.291 261.838 100.204 262.604 99.3018C263.369 98.3857 264.306 97.6885 265.413 97.21C266.521 96.7178 267.744 96.4717 269.084 96.4717C270.574 96.4717 271.873 96.7246 272.98 97.2305C274.088 97.7227 275.004 98.4268 275.729 99.3428C276.453 100.245 277 101.339 277.369 102.624C277.738 103.896 277.923 105.283 277.923 106.787H263.342C263.342 109.303 263.916 111.278 265.064 112.714C266.213 114.149 267.881 114.867 270.068 114.867C271.326 114.867 272.386 114.56 273.247 113.944C274.122 113.315 274.826 112.557 275.359 111.668L277.492 113.104C276.768 114.361 275.824 115.407 274.662 116.241C273.5 117.062 271.935 117.472 269.966 117.472C268.448 117.472 267.088 117.239 265.885 116.774C264.695 116.31 263.67 115.64 262.809 114.765C261.961 113.876 261.305 112.775 260.84 111.463C260.375 110.137 260.143 108.605 260.143 106.869ZM263.629 104.224H274.252C274.225 103.362 274.054 102.604 273.739 101.947C273.438 101.291 273.049 100.744 272.57 100.307C272.105 99.8691 271.559 99.5479 270.93 99.3428C270.314 99.124 269.699 99.0146 269.084 99.0146C267.744 99.0146 266.589 99.418 265.618 100.225C264.661 101.018 263.998 102.351 263.629 104.224ZM280.343 99.6094V96.9639H283.788V91.5088H287.028V96.9639H292.278V99.6094H286.967V112.427C286.967 113.411 287.158 114.067 287.541 114.396C287.924 114.71 288.409 114.867 288.997 114.867C289.53 114.867 290.029 114.758 290.494 114.539C290.973 114.307 291.41 114.033 291.807 113.719L293.058 115.913C292.415 116.392 291.779 116.768 291.15 117.041C290.521 117.328 289.633 117.472 288.484 117.472C286.967 117.472 285.805 117.089 284.998 116.323C284.191 115.544 283.788 114.354 283.788 112.755V99.6094H280.343Z" fill="#333333"/>
<line x1="30" y1="198" x2="288" y2="198" stroke="#D9D9DA" stroke-width="4"/>
<circle cx="30" cy="197" r="12" fill="#D9D9DA"/>
<path d="M30.9609 203H29.5547V194.039C29.2161 194.362 28.7708 194.685 28.2188 195.008C27.6719 195.331 27.1797 195.573 26.7422 195.734V194.375C27.5286 194.005 28.2161 193.557 28.8047 193.031C29.3932 192.505 29.8099 191.995 30.0547 191.5H30.9609V203Z" fill="white"/>
<circle cx="159" cy="197" r="12" fill="#333333"/>
<path d="M162.055 201.648V203H154.484C154.474 202.661 154.529 202.336 154.648 202.023C154.841 201.508 155.148 201 155.57 200.5C155.997 200 156.612 199.422 157.414 198.766C158.659 197.745 159.5 196.938 159.938 196.344C160.375 195.745 160.594 195.18 160.594 194.648C160.594 194.091 160.393 193.622 159.992 193.242C159.596 192.857 159.078 192.664 158.438 192.664C157.76 192.664 157.219 192.867 156.812 193.273C156.406 193.68 156.201 194.242 156.195 194.961L154.75 194.812C154.849 193.734 155.221 192.914 155.867 192.352C156.513 191.784 157.38 191.5 158.469 191.5C159.568 191.5 160.438 191.805 161.078 192.414C161.719 193.023 162.039 193.779 162.039 194.68C162.039 195.138 161.945 195.589 161.758 196.031C161.57 196.474 161.258 196.94 160.82 197.43C160.388 197.919 159.667 198.591 158.656 199.445C157.812 200.154 157.271 200.635 157.031 200.891C156.792 201.141 156.594 201.393 156.438 201.648H162.055Z" fill="white"/>
<circle cx="288" cy="197" r="12" fill="#D9D9DA"/>
<path d="M283.672 199.977L285.078 199.789C285.24 200.586 285.513 201.161 285.898 201.516C286.289 201.865 286.763 202.039 287.32 202.039C287.982 202.039 288.539 201.81 288.992 201.352C289.451 200.893 289.68 200.326 289.68 199.648C289.68 199.003 289.469 198.471 289.047 198.055C288.625 197.633 288.089 197.422 287.438 197.422C287.172 197.422 286.841 197.474 286.445 197.578L286.602 196.344C286.695 196.354 286.771 196.359 286.828 196.359C287.427 196.359 287.966 196.203 288.445 195.891C288.924 195.578 289.164 195.096 289.164 194.445C289.164 193.93 288.99 193.503 288.641 193.164C288.292 192.826 287.841 192.656 287.289 192.656C286.742 192.656 286.286 192.828 285.922 193.172C285.557 193.516 285.323 194.031 285.219 194.719L283.812 194.469C283.984 193.526 284.375 192.797 284.984 192.281C285.594 191.76 286.352 191.5 287.258 191.5C287.883 191.5 288.458 191.635 288.984 191.906C289.51 192.172 289.911 192.536 290.188 193C290.469 193.464 290.609 193.956 290.609 194.477C290.609 194.971 290.477 195.422 290.211 195.828C289.945 196.234 289.552 196.557 289.031 196.797C289.708 196.953 290.234 197.279 290.609 197.773C290.984 198.263 291.172 198.878 291.172 199.617C291.172 200.617 290.807 201.466 290.078 202.164C289.349 202.857 288.427 203.203 287.312 203.203C286.307 203.203 285.471 202.904 284.805 202.305C284.143 201.706 283.766 200.93 283.672 199.977Z" fill="white"/>
<path d="M1.4375 230V218.547H6.51562C7.53646 218.547 8.3125 218.651 8.84375 218.859C9.375 219.062 9.79948 219.424 10.1172 219.945C10.4349 220.466 10.5938 221.042 10.5938 221.672C10.5938 222.484 10.3307 223.169 9.80469 223.727C9.27865 224.284 8.46615 224.638 7.36719 224.789C7.76823 224.982 8.07292 225.172 8.28125 225.359C8.72396 225.766 9.14323 226.273 9.53906 226.883L11.5312 230H9.625L8.10938 227.617C7.66667 226.93 7.30208 226.404 7.01562 226.039C6.72917 225.674 6.47135 225.419 6.24219 225.273C6.01823 225.128 5.78906 225.026 5.55469 224.969C5.38281 224.932 5.10156 224.914 4.71094 224.914H2.95312V230H1.4375ZM2.95312 223.602H6.21094C6.90365 223.602 7.44531 223.531 7.83594 223.391C8.22656 223.245 8.52344 223.016 8.72656 222.703C8.92969 222.385 9.03125 222.042 9.03125 221.672C9.03125 221.13 8.83333 220.685 8.4375 220.336C8.04688 219.987 7.42708 219.812 6.57812 219.812H2.95312V223.602ZM18.4766 227.328L19.9297 227.508C19.7005 228.357 19.276 229.016 18.6562 229.484C18.0365 229.953 17.2448 230.188 16.2812 230.188C15.0677 230.188 14.1042 229.815 13.3906 229.07C12.6823 228.32 12.3281 227.271 12.3281 225.922C12.3281 224.526 12.6875 223.443 13.4062 222.672C14.125 221.901 15.0573 221.516 16.2031 221.516C17.3125 221.516 18.2188 221.893 18.9219 222.648C19.625 223.404 19.9766 224.466 19.9766 225.836C19.9766 225.919 19.974 226.044 19.9688 226.211H13.7812C13.8333 227.122 14.0911 227.82 14.5547 228.305C15.0182 228.789 15.5964 229.031 16.2891 229.031C16.8047 229.031 17.2448 228.896 17.6094 228.625C17.974 228.354 18.263 227.922 18.4766 227.328ZM13.8594 225.055H18.4922C18.4297 224.357 18.2526 223.833 17.9609 223.484C17.513 222.943 16.9323 222.672 16.2188 222.672C15.5729 222.672 15.0286 222.888 14.5859 223.32C14.1484 223.753 13.9062 224.331 13.8594 225.055ZM26.9922 233.18V229.117C26.7734 229.424 26.4661 229.68 26.0703 229.883C25.6797 230.086 25.263 230.188 24.8203 230.188C23.8359 230.188 22.987 229.794 22.2734 229.008C21.5651 228.221 21.2109 227.143 21.2109 225.773C21.2109 224.94 21.3542 224.193 21.6406 223.531C21.9323 222.87 22.3516 222.37 22.8984 222.031C23.4505 221.688 24.0547 221.516 24.7109 221.516C25.737 221.516 26.5443 221.948 27.1328 222.812V221.703H28.3984V233.18H26.9922ZM22.6562 225.828C22.6562 226.896 22.8802 227.698 23.3281 228.234C23.776 228.766 24.3125 229.031 24.9375 229.031C25.5365 229.031 26.0521 228.779 26.4844 228.273C26.9167 227.763 27.1328 226.99 27.1328 225.953C27.1328 224.849 26.9036 224.018 26.4453 223.461C25.9922 222.904 25.4583 222.625 24.8438 222.625C24.2344 222.625 23.7161 222.885 23.2891 223.406C22.8672 223.922 22.6562 224.729 22.6562 225.828ZM36.0469 230V228.781C35.401 229.719 34.5234 230.188 33.4141 230.188C32.9245 230.188 32.4661 230.094 32.0391 229.906C31.6172 229.719 31.3021 229.484 31.0938 229.203C30.8906 228.917 30.7474 228.568 30.6641 228.156C30.6068 227.88 30.5781 227.443 30.5781 226.844V221.703H31.9844V226.305C31.9844 227.039 32.013 227.534 32.0703 227.789C32.1589 228.159 32.3464 228.451 32.6328 228.664C32.9193 228.872 33.2734 228.977 33.6953 228.977C34.1172 228.977 34.513 228.87 34.8828 228.656C35.2526 228.438 35.513 228.143 35.6641 227.773C35.8203 227.398 35.8984 226.857 35.8984 226.148V221.703H37.3047V230H36.0469ZM45.1953 227.328L46.6484 227.508C46.4193 228.357 45.9948 229.016 45.375 229.484C44.7552 229.953 43.9635 230.188 43 230.188C41.7865 230.188 40.8229 229.815 40.1094 229.07C39.401 228.32 39.0469 227.271 39.0469 225.922C39.0469 224.526 39.4062 223.443 40.125 222.672C40.8438 221.901 41.776 221.516 42.9219 221.516C44.0312 221.516 44.9375 221.893 45.6406 222.648C46.3438 223.404 46.6953 224.466 46.6953 225.836C46.6953 225.919 46.6927 226.044 46.6875 226.211H40.5C40.5521 227.122 40.8099 227.82 41.2734 228.305C41.737 228.789 42.3151 229.031 43.0078 229.031C43.5234 229.031 43.9635 228.896 44.3281 228.625C44.6927 228.354 44.9818 227.922 45.1953 227.328ZM40.5781 225.055H45.2109C45.1484 224.357 44.9714 223.833 44.6797 223.484C44.2318 222.943 43.651 222.672 42.9375 222.672C42.2917 222.672 41.7474 222.888 41.3047 223.32C40.8672 223.753 40.625 224.331 40.5781 225.055ZM47.8594 227.523L49.25 227.305C49.3281 227.862 49.5443 228.289 49.8984 228.586C50.2578 228.883 50.7578 229.031 51.3984 229.031C52.0443 229.031 52.5234 228.901 52.8359 228.641C53.1484 228.375 53.3047 228.065 53.3047 227.711C53.3047 227.393 53.1667 227.143 52.8906 226.961C52.6979 226.836 52.2188 226.677 51.4531 226.484C50.4219 226.224 49.7057 226 49.3047 225.812C48.9089 225.62 48.6068 225.357 48.3984 225.023C48.1953 224.685 48.0938 224.312 48.0938 223.906C48.0938 223.536 48.1771 223.195 48.3438 222.883C48.5156 222.565 48.7474 222.302 49.0391 222.094C49.2578 221.932 49.5547 221.797 49.9297 221.688C50.3099 221.573 50.7161 221.516 51.1484 221.516C51.7995 221.516 52.3698 221.609 52.8594 221.797C53.3542 221.984 53.7188 222.24 53.9531 222.562C54.1875 222.88 54.349 223.307 54.4375 223.844L53.0625 224.031C53 223.604 52.8177 223.271 52.5156 223.031C52.2188 222.792 51.7969 222.672 51.25 222.672C50.6042 222.672 50.1432 222.779 49.8672 222.992C49.5911 223.206 49.4531 223.456 49.4531 223.742C49.4531 223.924 49.5104 224.089 49.625 224.234C49.7396 224.385 49.9193 224.51 50.1641 224.609C50.3047 224.661 50.7188 224.781 51.4062 224.969C52.401 225.234 53.0938 225.453 53.4844 225.625C53.8802 225.792 54.1901 226.036 54.4141 226.359C54.638 226.682 54.75 227.083 54.75 227.562C54.75 228.031 54.612 228.474 54.3359 228.891C54.0651 229.302 53.6719 229.622 53.1562 229.852C52.6406 230.076 52.0573 230.188 51.4062 230.188C50.3281 230.188 49.5052 229.964 48.9375 229.516C48.375 229.068 48.0156 228.404 47.8594 227.523ZM59.4922 228.742L59.6953 229.984C59.2995 230.068 58.9453 230.109 58.6328 230.109C58.1224 230.109 57.7266 230.029 57.4453 229.867C57.1641 229.706 56.9661 229.495 56.8516 229.234C56.737 228.969 56.6797 228.414 56.6797 227.57V222.797H55.6484V221.703H56.6797V219.648L58.0781 218.805V221.703H59.4922V222.797H58.0781V227.648C58.0781 228.049 58.1016 228.307 58.1484 228.422C58.2005 228.536 58.2812 228.628 58.3906 228.695C58.5052 228.763 58.6667 228.797 58.875 228.797C59.0312 228.797 59.237 228.779 59.4922 228.742Z" fill="#747678"/>
<path d="M134.664 230L130.227 218.547H131.867L134.844 226.867C135.083 227.534 135.284 228.159 135.445 228.742C135.622 228.117 135.828 227.492 136.062 226.867L139.156 218.547H140.703L136.219 230H134.664ZM146.109 228.977C145.589 229.419 145.086 229.732 144.602 229.914C144.122 230.096 143.607 230.188 143.055 230.188C142.143 230.188 141.443 229.966 140.953 229.523C140.464 229.076 140.219 228.505 140.219 227.812C140.219 227.406 140.31 227.036 140.492 226.703C140.68 226.365 140.922 226.094 141.219 225.891C141.521 225.688 141.859 225.534 142.234 225.43C142.51 225.357 142.927 225.286 143.484 225.219C144.62 225.083 145.456 224.922 145.992 224.734C145.997 224.542 146 224.419 146 224.367C146 223.794 145.867 223.391 145.602 223.156C145.242 222.839 144.708 222.68 144 222.68C143.339 222.68 142.849 222.797 142.531 223.031C142.219 223.26 141.987 223.669 141.836 224.258L140.461 224.07C140.586 223.482 140.792 223.008 141.078 222.648C141.365 222.284 141.779 222.005 142.32 221.812C142.862 221.615 143.49 221.516 144.203 221.516C144.911 221.516 145.487 221.599 145.93 221.766C146.372 221.932 146.698 222.143 146.906 222.398C147.115 222.648 147.26 222.966 147.344 223.352C147.391 223.591 147.414 224.023 147.414 224.648V226.523C147.414 227.831 147.443 228.659 147.5 229.008C147.562 229.352 147.682 229.682 147.859 230H146.391C146.245 229.708 146.151 229.367 146.109 228.977ZM145.992 225.836C145.482 226.044 144.716 226.221 143.695 226.367C143.117 226.451 142.708 226.544 142.469 226.648C142.229 226.753 142.044 226.906 141.914 227.109C141.784 227.307 141.719 227.529 141.719 227.773C141.719 228.148 141.859 228.461 142.141 228.711C142.427 228.961 142.844 229.086 143.391 229.086C143.932 229.086 144.414 228.969 144.836 228.734C145.258 228.495 145.568 228.169 145.766 227.758C145.917 227.44 145.992 226.971 145.992 226.352V225.836ZM149.57 230V218.547H150.977V230H149.57ZM153.172 220.164V218.547H154.578V220.164H153.172ZM153.172 230V221.703H154.578V230H153.172ZM162.109 230V228.953C161.583 229.776 160.81 230.188 159.789 230.188C159.128 230.188 158.518 230.005 157.961 229.641C157.409 229.276 156.979 228.768 156.672 228.117C156.37 227.461 156.219 226.708 156.219 225.859C156.219 225.031 156.357 224.281 156.633 223.609C156.909 222.932 157.323 222.414 157.875 222.055C158.427 221.695 159.044 221.516 159.727 221.516C160.227 221.516 160.672 221.622 161.062 221.836C161.453 222.044 161.771 222.318 162.016 222.656V218.547H163.414V230H162.109ZM157.664 225.859C157.664 226.922 157.888 227.716 158.336 228.242C158.784 228.768 159.312 229.031 159.922 229.031C160.536 229.031 161.057 228.781 161.484 228.281C161.917 227.776 162.133 227.008 162.133 225.977C162.133 224.841 161.914 224.008 161.477 223.477C161.039 222.945 160.5 222.68 159.859 222.68C159.234 222.68 158.711 222.935 158.289 223.445C157.872 223.956 157.664 224.76 157.664 225.859ZM171.047 228.977C170.526 229.419 170.023 229.732 169.539 229.914C169.06 230.096 168.544 230.188 167.992 230.188C167.081 230.188 166.38 229.966 165.891 229.523C165.401 229.076 165.156 228.505 165.156 227.812C165.156 227.406 165.247 227.036 165.43 226.703C165.617 226.365 165.859 226.094 166.156 225.891C166.458 225.688 166.797 225.534 167.172 225.43C167.448 225.357 167.865 225.286 168.422 225.219C169.557 225.083 170.393 224.922 170.93 224.734C170.935 224.542 170.938 224.419 170.938 224.367C170.938 223.794 170.805 223.391 170.539 223.156C170.18 222.839 169.646 222.68 168.938 222.68C168.276 222.68 167.786 222.797 167.469 223.031C167.156 223.26 166.924 223.669 166.773 224.258L165.398 224.07C165.523 223.482 165.729 223.008 166.016 222.648C166.302 222.284 166.716 222.005 167.258 221.812C167.799 221.615 168.427 221.516 169.141 221.516C169.849 221.516 170.424 221.599 170.867 221.766C171.31 221.932 171.635 222.143 171.844 222.398C172.052 222.648 172.198 222.966 172.281 223.352C172.328 223.591 172.352 224.023 172.352 224.648V226.523C172.352 227.831 172.38 228.659 172.438 229.008C172.5 229.352 172.62 229.682 172.797 230H171.328C171.182 229.708 171.089 229.367 171.047 228.977ZM170.93 225.836C170.419 226.044 169.654 226.221 168.633 226.367C168.055 226.451 167.646 226.544 167.406 226.648C167.167 226.753 166.982 226.906 166.852 227.109C166.721 227.307 166.656 227.529 166.656 227.773C166.656 228.148 166.797 228.461 167.078 228.711C167.365 228.961 167.781 229.086 168.328 229.086C168.87 229.086 169.352 228.969 169.773 228.734C170.195 228.495 170.505 228.169 170.703 227.758C170.854 227.44 170.93 226.971 170.93 226.352V225.836ZM177.609 228.742L177.812 229.984C177.417 230.068 177.062 230.109 176.75 230.109C176.24 230.109 175.844 230.029 175.562 229.867C175.281 229.706 175.083 229.495 174.969 229.234C174.854 228.969 174.797 228.414 174.797 227.57V222.797H173.766V221.703H174.797V219.648L176.195 218.805V221.703H177.609V222.797H176.195V227.648C176.195 228.049 176.219 228.307 176.266 228.422C176.318 228.536 176.398 228.628 176.508 228.695C176.622 228.763 176.784 228.797 176.992 228.797C177.148 228.797 177.354 228.779 177.609 228.742ZM184.672 227.328L186.125 227.508C185.896 228.357 185.471 229.016 184.852 229.484C184.232 229.953 183.44 230.188 182.477 230.188C181.263 230.188 180.299 229.815 179.586 229.07C178.878 228.32 178.523 227.271 178.523 225.922C178.523 224.526 178.883 223.443 179.602 222.672C180.32 221.901 181.253 221.516 182.398 221.516C183.508 221.516 184.414 221.893 185.117 222.648C185.82 223.404 186.172 224.466 186.172 225.836C186.172 225.919 186.169 226.044 186.164 226.211H179.977C180.029 227.122 180.286 227.82 180.75 228.305C181.214 228.789 181.792 229.031 182.484 229.031C183 229.031 183.44 228.896 183.805 228.625C184.169 228.354 184.458 227.922 184.672 227.328ZM180.055 225.055H184.688C184.625 224.357 184.448 223.833 184.156 223.484C183.708 222.943 183.128 222.672 182.414 222.672C181.768 222.672 181.224 222.888 180.781 223.32C180.344 223.753 180.102 224.331 180.055 225.055Z" fill="#333333"/>
<path d="M267.344 230V218.547H272.422C273.443 218.547 274.219 218.651 274.75 218.859C275.281 219.062 275.706 219.424 276.023 219.945C276.341 220.466 276.5 221.042 276.5 221.672C276.5 222.484 276.237 223.169 275.711 223.727C275.185 224.284 274.372 224.638 273.273 224.789C273.674 224.982 273.979 225.172 274.188 225.359C274.63 225.766 275.049 226.273 275.445 226.883L277.438 230H275.531L274.016 227.617C273.573 226.93 273.208 226.404 272.922 226.039C272.635 225.674 272.378 225.419 272.148 225.273C271.924 225.128 271.695 225.026 271.461 224.969C271.289 224.932 271.008 224.914 270.617 224.914H268.859V230H267.344ZM268.859 223.602H272.117C272.81 223.602 273.352 223.531 273.742 223.391C274.133 223.245 274.43 223.016 274.633 222.703C274.836 222.385 274.938 222.042 274.938 221.672C274.938 221.13 274.74 220.685 274.344 220.336C273.953 219.987 273.333 219.812 272.484 219.812H268.859V223.602ZM284.383 227.328L285.836 227.508C285.607 228.357 285.182 229.016 284.562 229.484C283.943 229.953 283.151 230.188 282.188 230.188C280.974 230.188 280.01 229.815 279.297 229.07C278.589 228.32 278.234 227.271 278.234 225.922C278.234 224.526 278.594 223.443 279.312 222.672C280.031 221.901 280.964 221.516 282.109 221.516C283.219 221.516 284.125 221.893 284.828 222.648C285.531 223.404 285.883 224.466 285.883 225.836C285.883 225.919 285.88 226.044 285.875 226.211H279.688C279.74 227.122 279.997 227.82 280.461 228.305C280.924 228.789 281.503 229.031 282.195 229.031C282.711 229.031 283.151 228.896 283.516 228.625C283.88 228.354 284.169 227.922 284.383 227.328ZM279.766 225.055H284.398C284.336 224.357 284.159 223.833 283.867 223.484C283.419 222.943 282.839 222.672 282.125 222.672C281.479 222.672 280.935 222.888 280.492 223.32C280.055 223.753 279.812 224.331 279.766 225.055ZM287.047 227.523L288.438 227.305C288.516 227.862 288.732 228.289 289.086 228.586C289.445 228.883 289.945 229.031 290.586 229.031C291.232 229.031 291.711 228.901 292.023 228.641C292.336 228.375 292.492 228.065 292.492 227.711C292.492 227.393 292.354 227.143 292.078 226.961C291.885 226.836 291.406 226.677 290.641 226.484C289.609 226.224 288.893 226 288.492 225.812C288.096 225.62 287.794 225.357 287.586 225.023C287.383 224.685 287.281 224.312 287.281 223.906C287.281 223.536 287.365 223.195 287.531 222.883C287.703 222.565 287.935 222.302 288.227 222.094C288.445 221.932 288.742 221.797 289.117 221.688C289.497 221.573 289.904 221.516 290.336 221.516C290.987 221.516 291.557 221.609 292.047 221.797C292.542 221.984 292.906 222.24 293.141 222.562C293.375 222.88 293.536 223.307 293.625 223.844L292.25 224.031C292.188 223.604 292.005 223.271 291.703 223.031C291.406 222.792 290.984 222.672 290.438 222.672C289.792 222.672 289.331 222.779 289.055 222.992C288.779 223.206 288.641 223.456 288.641 223.742C288.641 223.924 288.698 224.089 288.812 224.234C288.927 224.385 289.107 224.51 289.352 224.609C289.492 224.661 289.906 224.781 290.594 224.969C291.589 225.234 292.281 225.453 292.672 225.625C293.068 225.792 293.378 226.036 293.602 226.359C293.826 226.682 293.938 227.083 293.938 227.562C293.938 228.031 293.799 228.474 293.523 228.891C293.253 229.302 292.859 229.622 292.344 229.852C291.828 230.076 291.245 230.188 290.594 230.188C289.516 230.188 288.693 229.964 288.125 229.516C287.562 229.068 287.203 228.404 287.047 227.523ZM301.289 227.328L302.742 227.508C302.513 228.357 302.089 229.016 301.469 229.484C300.849 229.953 300.057 230.188 299.094 230.188C297.88 230.188 296.917 229.815 296.203 229.07C295.495 228.32 295.141 227.271 295.141 225.922C295.141 224.526 295.5 223.443 296.219 222.672C296.938 221.901 297.87 221.516 299.016 221.516C300.125 221.516 301.031 221.893 301.734 222.648C302.438 223.404 302.789 224.466 302.789 225.836C302.789 225.919 302.786 226.044 302.781 226.211H296.594C296.646 227.122 296.904 227.82 297.367 228.305C297.831 228.789 298.409 229.031 299.102 229.031C299.617 229.031 300.057 228.896 300.422 228.625C300.786 228.354 301.076 227.922 301.289 227.328ZM296.672 225.055H301.305C301.242 224.357 301.065 223.833 300.773 223.484C300.326 222.943 299.745 222.672 299.031 222.672C298.385 222.672 297.841 222.888 297.398 223.32C296.961 223.753 296.719 224.331 296.672 225.055ZM307.586 228.742L307.789 229.984C307.393 230.068 307.039 230.109 306.727 230.109C306.216 230.109 305.82 230.029 305.539 229.867C305.258 229.706 305.06 229.495 304.945 229.234C304.831 228.969 304.773 228.414 304.773 227.57V222.797H303.742V221.703H304.773V219.648L306.172 218.805V221.703H307.586V222.797H306.172V227.648C306.172 228.049 306.195 228.307 306.242 228.422C306.294 228.536 306.375 228.628 306.484 228.695C306.599 228.763 306.76 228.797 306.969 228.797C307.125 228.797 307.331 228.779 307.586 228.742Z" fill="#747678"/>
</svg>
