<svg width="103" height="62" viewBox="0 0 103 62" fill="none" xmlns="http://www.w3.org/2000/svg">
<path d="M82.5856 61.8807C82.3263 61.8879 82.074 61.7936 81.8801 61.6171C81.6862 61.4406 81.5652 61.1952 81.5417 60.9306C81.5417 60.6931 81.5417 60.5743 81.6577 60.4556L88.9651 49.8858C92.5608 44.6602 93.0248 44.1852 93.0248 38.8409V2.14344C93.0232 1.87786 93.0732 1.61462 93.1717 1.36895C93.2703 1.12329 93.4155 0.900097 93.5989 0.712305C93.7823 0.524513 94.0003 0.375858 94.2402 0.274954C94.4802 0.174051 94.7373 0.122904 94.9966 0.12448H101.028C101.547 0.139439 102.04 0.356952 102.406 0.732386C102.773 1.10782 102.985 1.6127 103 2.14344V40.1473C103 45.6103 101.376 47.8668 98.1284 52.7361L91.9809 61.2869C91.8235 61.5132 91.6143 61.6965 91.3716 61.8207C91.1289 61.9449 90.8602 62.0063 90.589 61.9995H82.5856V61.8807Z" fill="#2A6EBB"/>
<path d="M27.1419 22.5715C27.1664 22.3915 27.2479 22.2246 27.3739 22.0965C28.9637 21.0811 30.2695 19.6612 31.1639 17.9753C32.0584 16.2894 32.5109 14.395 32.4775 12.4768C32.4775 3.92591 25.286 0.0067621 18.6746 0.0067621H1.97188C1.7125 0.00518596 1.4554 0.0563315 1.21547 0.157235C0.975539 0.258139 0.757553 0.406794 0.574143 0.594586C0.390732 0.782378 0.245546 1.00557 0.146996 1.25123C0.0484472 1.4969 -0.00150484 1.76014 3.45249e-05 2.02572V43.8299C0.0146445 44.3607 0.227082 44.8656 0.593755 45.241C0.960428 45.6164 1.45353 45.8339 1.97188 45.8489H19.7185C26.4459 45.8489 33.7534 41.811 33.7534 33.6164C33.7885 31.384 33.1945 29.1886 32.0426 27.293C30.8906 25.3973 29.2294 23.8818 27.2579 22.9278C27.3739 23.0466 27.1419 22.8091 27.1419 22.5715ZM9.97525 8.67639C9.97525 8.39291 10.0852 8.12104 10.281 7.92059C10.4768 7.72014 10.7423 7.60753 11.0192 7.60753H15.0788C17.7466 7.60753 22.1543 8.20134 22.1543 13.0706C22.1543 17.7023 17.2827 18.4149 15.3108 18.4149H11.0192C10.7423 18.4149 10.4768 18.3023 10.281 18.1018C10.0852 17.9014 9.97525 17.6295 9.97525 17.346V8.67639ZM18.9065 38.0106C17.7904 38.1529 16.6675 38.2322 15.5428 38.2481H10.9032C10.6263 38.2481 10.3608 38.1355 10.165 37.9351C9.96924 37.7346 9.85925 37.4627 9.85925 37.1793V28.1534C9.85925 27.8699 9.96924 27.598 10.165 27.3976C10.3608 27.1971 10.6263 27.0845 10.9032 27.0845H15.7748C16.8224 27.1001 17.8681 27.1795 18.9065 27.322C20.147 27.5454 21.266 28.2225 22.0555 29.2274C22.8449 30.2323 23.251 31.4966 23.1982 32.7851C23.1668 34.0251 22.725 35.2173 21.9453 36.1667C21.1657 37.116 20.0942 37.7662 18.9065 38.0106Z" fill="#2A6EBB"/>
<path d="M70.7544 18.6523C70.8704 18.5336 70.9864 18.4148 71.1023 18.4148C71.2227 18.4231 71.3361 18.4758 71.4214 18.5632C71.5067 18.6505 71.5582 18.7666 71.5663 18.8898V43.8298C71.5648 44.0954 71.6147 44.3587 71.7133 44.6043C71.8118 44.85 71.957 45.0732 72.1404 45.261C72.3238 45.4488 72.5418 45.5974 72.7817 45.6983C73.0217 45.7992 73.2788 45.8504 73.5382 45.8488H79.5697C80.088 45.8338 80.5811 45.6163 80.9478 45.2409C81.3145 44.8655 81.5269 44.3606 81.5415 43.8298V2.02563C81.5431 1.76006 81.4931 1.49681 81.3946 1.25115C81.296 1.00549 81.1508 0.782296 80.9674 0.594504C80.784 0.406712 80.566 0.258056 80.3261 0.157153C80.0862 0.0562491 79.829 0.0051036 79.5697 0.00667975H73.1902C72.8616 0.003668 72.5381 0.0900395 72.2528 0.256967C71.9675 0.423894 71.7306 0.665391 71.5663 0.956776L61.4751 15.327C61.3591 15.4457 61.2431 15.5645 61.1271 15.5645C61.0111 15.5645 60.7792 15.4457 60.7792 15.327L50.804 0.956776C50.6397 0.665391 50.4028 0.423894 50.1175 0.256967C49.8322 0.0900395 49.5087 0.003668 49.1801 0.00667975H43.0326C42.7472 -0.0167356 42.4602 0.0215675 42.1902 0.119102C41.9203 0.216636 41.6733 0.371221 41.4655 0.572817C41.2577 0.774413 41.0936 1.01851 40.9839 1.28926C40.8742 1.56002 40.8213 1.85137 40.8288 2.1444V43.9486C40.8272 44.2142 40.8772 44.4774 40.9757 44.7231C41.0743 44.9688 41.2195 45.1919 41.4029 45.3797C41.5863 45.5675 41.8043 45.7162 42.0442 45.8171C42.2841 45.918 42.5412 45.9691 42.8006 45.9676H48.7161C48.9755 45.9691 49.2326 45.918 49.4725 45.8171C49.7125 45.7162 49.9305 45.5675 50.1139 45.3797C50.2973 45.1919 50.4425 44.9688 50.541 44.7231C50.6396 44.4774 50.6895 44.2142 50.688 43.9486V19.0086C50.6961 18.8853 50.7476 18.7693 50.8329 18.682C50.9182 18.5946 51.0316 18.5419 51.1519 18.5335C51.2679 18.5335 51.4999 18.6523 51.4999 18.7711L58.8073 29.4596C58.9964 29.7178 59.2416 29.9273 59.5234 30.0716C59.8053 30.2159 60.1161 30.291 60.4312 30.291H61.5911C61.9062 30.291 62.217 30.2159 62.4989 30.0716C62.7807 29.9273 63.0259 29.7178 63.215 29.4596L70.7544 18.6523Z" fill="#2A6EBB"/>
</svg>
