<svg width="516" height="415" viewBox="0 0 516 415" fill="none" xmlns="http://www.w3.org/2000/svg">
<path d="M441.138 230.297C401.042 148.297 286.317 28.2058 137.254 27.8923C-18.289 27.5716 -33.336 181.846 50.5012 224.727C134.338 267.608 11.7538 321.053 99.3892 374.759C188.082 429.115 377.634 424.012 424.291 381.729C470.948 339.446 458.467 265.735 441.138 230.297Z" fill="url(#paint0_linear_10906_381045)"/>
<circle opacity="0.2" cx="457.427" cy="305.416" r="43.2324" fill="#C50084"/>
<circle cx="492.292" cy="259.395" r="23.7081" fill="#C50084"/>
<rect x="234.292" y="52.9946" width="158.984" height="329.243" rx="16.49" fill="#15375E"/>
<rect x="243.637" y="66.5096" width="140.299" height="302.212" rx="12.18" fill="url(#paint1_linear_10906_381045)"/>
<path d="M279.755 61.7476H347.828C347.828 69.6091 341.455 75.9821 333.593 75.9821H293.99C286.128 75.9821 279.755 69.6091 279.755 61.7476V61.7476Z" fill="#15375E"/>
<rect x="335.135" y="84.1937" width="39.7441" height="12.5211" rx="4.2" fill="#EAF1F8"/>
<rect x="254.379" y="108.464" width="46.8651" height="13.3593" rx="4.2" fill="#EAF1F8"/>
<rect x="258.236" y="88.0654" width="39.1507" height="4.77701" rx="2.3885" fill="#EAF1F8"/>
<rect x="258.318" y="129.709" width="110.932" height="167.21" rx="7.07" fill="#EAF1F8"/>
<rect x="258.318" y="312.34" width="110.932" height="29.5892" rx="7.07" fill="#EAF1F8"/>
<circle cx="313.787" cy="183.339" r="40.6342" stroke="white" stroke-width="6"/>
<rect x="269.281" y="236.012" width="89.0051" height="21.6523" rx="7.41" fill="white"/>
<rect x="269.281" y="266.558" width="89.0051" height="21.6523" rx="7.41" fill="white"/>
<path fill-rule="evenodd" clip-rule="evenodd" d="M304.594 165.195C305.503 164.745 306.45 164.359 307.428 164.043L310.578 158.588H317.133L320.283 164.043C321.26 164.359 322.206 164.745 323.115 165.195L329.169 163.573L333.804 168.208L332.249 174.01C332.813 175.053 333.291 176.15 333.673 177.29L338.789 180.244V186.8L333.979 189.577C333.587 190.975 333.054 192.314 332.396 193.578L333.804 198.835L329.169 203.471L324.142 202.124C322.755 202.91 321.269 203.542 319.708 203.997L317.133 208.456H310.578L308.003 203.997C306.441 203.543 304.955 202.91 303.568 202.124L298.542 203.471L293.907 198.835L295.315 193.58C294.656 192.316 294.122 190.976 293.73 189.576L288.921 186.8V180.244L294.036 177.291C294.418 176.15 294.896 175.053 295.461 174.009L293.907 168.209L298.542 163.573L304.594 165.195ZM306.225 195.095L302.691 191.562C301.204 189.39 300.334 186.762 300.334 183.932C300.334 176.464 306.388 170.411 313.855 170.411C321.322 170.411 327.376 176.464 327.376 183.932C327.376 186.765 326.504 189.394 325.015 191.567L321.49 195.092C320.128 196.026 318.586 196.716 316.928 197.102H310.782C309.125 196.717 307.586 196.027 306.225 195.095Z" fill="#88005B"/>
<path d="M151.949 21.6379C152.725 21.3326 156.442 18.6834 153.955 17.3145C151.468 15.9455 156.063 12.0061 152.106 11.9667C149.055 11.9667 152.032 4.61976 149.332 7.20991C146.633 9.80007 144.349 1.75386 143.48 4.17658C142.611 6.59931 140.244 -3.20978 138.469 2.13795C136.694 7.48567 135.816 -2.16584 133.264 0.463704C130.712 3.09325 128.087 -1.13175 127.079 2.15764C126.071 5.44704 120.274 3.59552 121.106 7.51522C121.938 11.4349 115.726 10.4698 117.575 12.9811C119.424 15.4925 114.015 17.0092 116.345 19.4122C118.675 21.8152 114.256 23.716 116.835 24.8485C119.414 25.9811 117.334 30.2948 120.08 30.6296C122.826 30.9645 127.754 29.5561 127.754 29.5561L151.949 21.6379Z" fill="#321709"/>
<path d="M144.2 20.0946C144.2 20.0946 147.589 18.0011 146.541 15.9231C145.353 17.2025 143.231 18.8928 141.938 18.7067C140.645 18.5206 135.325 17.0086 135.631 13.9071C132.425 15.171 134.294 18.0088 134.294 18.0088C134.294 18.0088 126.572 18.6834 125.087 23.9017C133.316 16.3961 144.2 20.0946 144.2 20.0946Z" fill="#1E1006"/>
<path d="M139.047 52.3463C147.444 52.9897 147.793 50.2599 154.023 55.7838C161.563 43.6146 163.071 36.1422 160.809 27.7506C158.5 19.1751 150.055 12.9986 140.47 12.5758C128.877 12.1346 122.28 17.6953 118.679 27.052C115.56 35.1219 117.303 41.997 122.977 49.9474C128.651 57.8978 134.711 52.9254 139.047 52.3463Z" fill="#321709"/>
<path d="M146.223 71.641C148.501 70.8477 150.531 69.0567 152.011 66.5358C151.575 64.8138 151.24 63.0467 151.007 61.2512C149.231 63.8012 146.749 65.1767 144.191 65.0293C139.853 64.904 135.695 62.6103 132.486 58.573C132.789 61.9088 133.118 66.1771 133.196 69.9552C137.255 72.6419 141.874 73.2397 146.223 71.641Z" fill="#8E582E"/>
<path d="M157.587 83.4124L157.703 82.001C157.703 82.001 162.989 117.927 157.757 118.85C156.996 108.808 131.483 88.1939 126.753 79.3494C127.998 78.3058 131.949 75.0041 132.683 69.6922C136.9 71.6141 141.698 72.0328 146.21 70.8727C148.567 70.3023 150.666 69.0177 152.194 67.2117C153.586 70.9799 155.799 74.4232 158.689 77.3136L157.587 83.4124Z" fill="#B5703A"/>
<path d="M157.23 54.3358C156.91 56.4837 155.007 63.4996 152.23 65.8852C150.169 67.607 147.454 68.4825 144.696 68.3148C139.974 68.2226 135.448 66.5338 131.956 63.5613C129.425 61.4185 127.321 58.8732 125.741 56.0436C122.624 57.0031 116.145 46.8269 119.46 43.5259C122.775 40.2248 125.044 46.2988 125.044 46.2988C125.044 46.2988 125.92 30.0134 136.909 33.0504C142.474 34.5909 143.209 27.6102 147.032 29.6701C151.222 31.9324 152.06 27.575 156.213 33.693C157.823 38.2969 157.814 50.4009 157.23 54.3358Z" fill="#B5703A"/>
<path d="M140.909 41.5952C141.313 41.2741 138.799 39.8247 137.561 39.7605C136.323 39.6963 132.818 39.6688 131.314 42.4024C132.387 41.0081 135.268 40.7696 136.057 40.8154C137.112 41.1038 138.142 41.4749 139.139 41.9254C139.749 41.9975 140.366 41.8823 140.909 41.5952Z" fill="#321709"/>
<path d="M140.743 45.7226C140.554 44.5021 139.575 43.5569 138.349 43.4109C136.202 43.1449 134.129 45.3006 133.569 44.8053C133.569 45.7226 135.257 45.374 135.257 45.374C135.257 45.374 136.514 44.8053 137.771 44.3924C139.027 43.9796 140.743 45.7226 140.743 45.7226Z" fill="#321709"/>
<circle cx="138.15" cy="45.1808" r="1.69707" transform="rotate(-89.84 138.15 45.1808)" fill="#321709"/>
<path d="M148.258 41.6132C147.854 41.2922 150.377 39.8519 151.615 39.7786C153.662 39.4135 155.705 40.4405 156.633 42.3012C155.774 41.2595 154.455 40.71 153.11 40.8335C152.053 41.1154 151.019 41.4805 150.019 41.9251C149.414 42.0009 148.8 41.8922 148.258 41.6132Z" fill="#321709"/>
<path d="M148.404 45.7412C148.973 44.5346 150.104 43.6891 151.422 43.4846C153.568 43.2277 155.027 45.3193 155.587 44.8698C155.587 45.7871 153.899 45.4293 153.899 45.4293C153.164 44.879 152.297 44.5339 151.385 44.4294C150.303 44.6304 149.283 45.0794 148.404 45.7412Z" fill="#321709"/>
<circle cx="152.095" cy="45.1532" r="1.60534" transform="rotate(-89.84 152.095 45.1532)" fill="#321709"/>
<path d="M151.596 58.9136C151.238 60.0052 150.266 62.005 146.431 62.1242C143.175 62.2252 141.845 59.7575 141.267 58.9778L151.596 58.9136Z" fill="#853E19"/>
<path d="M151.623 58.8218V58.9227C151.232 59.1933 150.802 59.4036 150.348 59.5465C149.807 59.6474 149.202 59.3355 148.596 59.4639C147.953 59.6793 147.283 59.8029 146.606 59.8308C145.873 59.7985 145.143 59.7126 144.422 59.574C143.899 59.574 142.955 59.7208 142.588 59.7024C142.095 59.6162 141.635 59.3974 141.258 59.0695L141.193 58.9685C141.689 58.6291 145.239 57.2715 145.606 57.4366C146.209 57.8442 146.992 57.8727 147.624 57.51C148.468 56.9229 151.623 58.8218 151.623 58.8218Z" fill="#662F13"/>
<path d="M181.987 178.818L171.729 175.118L175.202 172.304C175.202 172.304 175.389 166.212 175.568 158.829C177.899 162.049 182.407 168.596 183.145 171.6C183.707 174.074 183.288 176.684 181.987 178.818Z" fill="#B5703A"/>
<path d="M121.755 133.784C120.925 135.185 113.693 141.081 111.871 142.171C111.729 139.784 111.748 135.535 111.795 132.177C115.199 132.239 118.565 132.783 121.755 133.784Z" fill="#15375E"/>
<path d="M183.389 221.847C183.185 221.93 182.975 221.999 182.761 222.05C181.538 222.373 178.471 222.831 173.355 221.491C166.495 219.684 156.287 221.126 150.13 222.932C149.94 222.992 149.741 223.043 149.526 223.093C145.501 224.06 136.244 224.696 129.136 225.069C123.912 225.341 119.854 225.459 119.854 225.459C119.854 225.459 118.796 207.583 119.854 194.786C114.895 204.191 116.862 223.467 115.457 224.009C114.87 224.238 112.655 223.484 110.258 222.517C106.952 221.177 103.265 219.43 102.96 219.32C102.431 219.142 107.183 199.637 110.952 189.164C113.481 182.142 123.044 143.37 112.06 131.082C106.573 130.872 101.197 132.707 96.9259 136.246C95.8472 137.059 94.6759 137.734 93.438 138.256C94.3228 132.546 95.487 126.886 96.9259 121.296C98.86 114.426 104.753 91.784 111.613 86.1785C118.474 80.573 127.317 77.3335 127.317 77.3335C127.317 77.3335 135.938 86.6619 142.542 94.8878C143.813 96.4645 145.805 97.2283 147.772 96.8928C149.739 96.5573 151.383 95.1732 152.089 93.2596C153.667 89.0194 156.221 78.6564 157.006 77.2063C160.089 78.3427 170.231 83.1425 171.479 84.8386C178.554 93.9889 182.505 127.028 182.505 127.028C182.505 127.028 174.587 132.057 173.066 132.057C173.893 139.884 175.975 152.851 175.851 158.049C175.661 165.614 175.455 171.855 175.455 171.855L171.76 174.739L182.679 178.512C182.679 178.512 181.662 192.776 182.191 195.473C182.72 198.17 183.389 221.847 183.389 221.847Z" fill="#367DCE"/>
<path d="M150.913 344.278C146.225 346.648 150.913 362.31 150.913 362.31L150.456 362.43L132.531 367.049C132.531 367.049 131.617 366.733 130.263 366.1C126.785 364.492 120.395 360.839 118.838 355.21C116.68 347.383 119.202 335.904 118.838 332.114C118.474 328.325 115.596 312.807 115.596 301.884C115.596 290.96 115.596 262.534 113.438 249.275C111.822 239.318 110.603 229.079 110.095 221.782C112.55 222.757 114.818 223.493 115.419 223.296C116.857 222.749 114.877 203.305 119.929 193.81C118.846 206.718 119.929 224.75 119.929 224.75C119.929 224.75 143.161 224.066 150.304 222.364C149.957 226.401 149.559 230.918 149.288 233.133C149.17 234.032 148.831 236.35 148.349 239.446C146.538 251.345 142.814 269.301 142.814 269.301C145.423 273.784 147.196 278.713 148.044 283.843C149.297 292.038 145.336 311.533 145.505 315.356C145.675 319.18 155.052 335.39 155.052 335.39C155.052 335.39 155.593 341.917 150.913 344.278Z" fill="#2A6EBB"/>
<path d="M193.82 350.785C193.272 355.335 195.644 360.969 195.644 364.784C195.498 364.955 195.344 365.117 195.182 365.28C192.759 367.687 189.035 369.035 184.959 369.735C175.867 371.289 165.02 369.599 162.854 369.223L162.469 369.155C162.469 369.155 160.277 352.603 161.005 342.428C161.733 332.253 163.745 324.433 164.472 316.981C165.2 309.529 162.649 289.93 162.649 287.028C162.649 284.125 161.373 278.662 159.73 274.3C158.505 271.022 150.612 252.029 146.742 239.959C147.23 236.868 147.598 234.555 147.692 233.659C147.966 231.482 148.369 226.932 148.72 222.912C148.942 222.86 149.148 222.809 149.345 222.749C152.471 221.885 155.66 221.263 158.882 220.888C163.882 220.291 169.241 220.231 173.436 221.298C178.735 222.647 181.912 222.152 183.179 221.862C186.278 234.376 194.848 268.205 196.021 271.432C197.485 275.435 196.209 286.157 196.021 293.976C195.832 301.795 194.368 346.252 193.82 350.785Z" fill="url(#paint2_linear_10906_381045)"/>
<path d="M155.024 376.171C152.047 377.68 148.729 378.545 145.326 378.7C140.168 378.919 134.596 375.427 131.304 372.945C130.384 370.525 129.979 367.969 130.109 365.412C131.493 365.991 132.413 366.281 132.413 366.281L150.622 362.052C151.877 364.331 154.182 368.904 154.835 372.616C155.063 373.789 155.126 374.983 155.024 376.171Z" fill="#262626"/>
<path d="M155.071 375.911C154.801 379.253 153.381 381.017 152.012 381.605C150.12 382.407 136.271 382.995 132.773 374.847C132.379 373.938 132.037 373.003 131.75 372.047C134.987 375.006 140.462 379.169 145.532 378.907C148.877 378.73 152.141 377.705 155.071 375.911Z" fill="black"/>
<path d="M213.373 377.369C212.871 379.518 211.886 380.718 210.399 381.169C206.405 382.384 198.676 382.28 193.108 381.169C188.595 380.267 180.399 375.284 179.025 375.203C177.65 375.123 176.639 377.618 176.639 377.618C176.639 377.618 165.132 376.765 163.93 374.962C163.351 374.084 163.333 372.152 163.472 370.381C167.336 370.912 178.765 372.482 180.589 372.909C182.803 373.416 190.627 378.544 198.745 379.349C203.723 379.897 208.768 379.214 213.373 377.369Z" fill="black"/>
<path d="M213.04 376.43C208.443 378.389 203.406 379.104 198.44 378.503C190.393 377.65 182.62 372.215 180.405 371.678C178.584 371.226 167.239 369.562 163.4 368.999C163.4 368.538 163.477 368.078 163.52 367.66C166.672 368.197 188.074 371.516 195.949 363.718C197.278 364.597 198.723 365.289 200.244 365.774C203.352 366.678 212.113 370.04 213.023 372.949C213.504 374.254 213.469 374.562 213.04 376.43Z" fill="#262626"/>
<path d="M180.058 128.845L178.615 162.16L176.352 159.131L173.395 132.06L180.058 128.845Z" fill="#B5703A"/>
<path d="M138.172 183.169L130.094 184.425C130.094 184.425 129.621 209.024 135.599 210.109C141.576 211.193 157.626 209.954 159.508 204.54C161.39 199.126 157.933 177.152 157.933 177.152L149.995 179.407L138.172 183.169Z" fill="url(#paint3_linear_10906_381045)"/>
<path d="M118.424 228.791C118.424 228.791 122.118 276.631 121.476 280.669C121.206 282.919 120.112 284.969 118.424 286.385L121.548 287.793L121.476 291.729C121.476 291.729 122.528 331.915 123.154 342.309C123.781 352.703 130.085 362.052 130.085 362.052" stroke="white" stroke-width="0.75"/>
<path d="M173.109 132.744C173.109 132.744 170.309 111.64 168.627 108.972C166.945 106.304 175.061 150.5 175.061 150.5L173.109 132.744Z" fill="url(#paint4_linear_10906_381045)"/>
<path d="M129.647 185.452C125.166 190.862 122.93 197.707 123.38 204.639C123.914 211.11 126.768 219.274 129.113 225.074C123.664 225.342 119.431 225.46 119.431 225.46C119.431 225.46 118.327 207.79 119.431 195.142C114.258 204.438 116.31 223.49 114.844 224.026C114.232 224.253 111.922 223.507 109.422 222.551C105.973 221.227 102.128 219.5 101.809 219.391C101.257 219.215 106.214 199.936 110.146 189.585C112.784 182.644 122.759 144.322 111.301 132.177C111.301 132.177 116.353 134.415 123.371 144.431C130.389 154.448 127.432 171.857 127.432 171.857L140.079 183.449L129.647 185.452Z" fill="url(#paint5_linear_10906_381045)"/>
<path d="M148.408 180.18C145.669 184.062 137.286 183.812 137.286 183.812C135.112 181.105 132.463 178.825 129.471 177.087C127.481 176.048 100.68 154.694 98.8623 152.092C96.6989 148.983 96.3945 142.117 97.1267 137.263C101.377 133.791 106.727 131.99 112.189 132.192C112.189 135.7 112.131 140.114 112.254 142.632C112.26 143.258 112.329 143.882 112.46 144.494C112.74 145.326 117.527 152.74 120.456 155.151C123.384 157.561 143.497 174.344 148.408 180.18Z" fill="#B5703A"/>
<path d="M185.055 369.735C176.336 371.29 165.935 369.598 163.858 369.222L163.488 369.154C163.488 369.154 161.387 352.589 162.085 342.406C162.782 332.222 164.712 324.397 165.409 316.939C166.107 309.481 163.661 289.866 163.661 286.961C163.661 284.057 162.438 278.589 160.861 274.224C159.687 270.943 152.118 251.935 148.408 239.855C148.876 236.762 149.229 234.447 149.319 233.55C149.582 231.372 149.968 226.818 150.304 222.794C150.518 222.743 150.715 222.692 150.903 222.632C153.901 221.767 156.959 221.145 160.049 220.77L163.332 220.462C163.332 220.462 153.604 235.31 163.768 250.893C173.931 266.475 179.874 276.137 178.544 286.679C177.215 297.222 175.023 318.776 175.556 335.007C176.09 350.855 169.793 360.466 185.055 369.735Z" fill="#2663A8"/>
<defs>
<linearGradient id="paint0_linear_10906_381045" x1="0.0020546" y1="414.489" x2="456.739" y2="414.489" gradientUnits="userSpaceOnUse">
<stop stop-color="#D9D9DA"/>
<stop offset="0.99" stop-color="#E5E6E6"/>
</linearGradient>
<linearGradient id="paint1_linear_10906_381045" x1="267.762" y1="116.449" x2="347.254" y2="320.06" gradientUnits="userSpaceOnUse">
<stop stop-color="#2A6EBB"/>
<stop offset="1" stop-color="#1F5189"/>
</linearGradient>
<linearGradient id="paint2_linear_10906_381045" x1="146.742" y1="370.325" x2="196.68" y2="370.325" gradientUnits="userSpaceOnUse">
<stop stop-color="#2663A8"/>
<stop offset="1" stop-color="#2A6EBB"/>
</linearGradient>
<linearGradient id="paint3_linear_10906_381045" x1="130.085" y1="210.478" x2="160.077" y2="210.478" gradientUnits="userSpaceOnUse">
<stop stop-color="#2663A8"/>
<stop offset="1" stop-color="#367DCE"/>
</linearGradient>
<linearGradient id="paint4_linear_10906_381045" x1="168.4" y1="150.496" x2="175.061" y2="150.496" gradientUnits="userSpaceOnUse">
<stop stop-color="#2A6EBB"/>
<stop offset="1" stop-color="#5995D9"/>
</linearGradient>
<linearGradient id="paint5_linear_10906_381045" x1="101.766" y1="225.467" x2="140.088" y2="225.467" gradientUnits="userSpaceOnUse">
<stop stop-color="#2663A8"/>
<stop offset="1" stop-color="#367DCE"/>
</linearGradient>
</defs>
</svg>
