<svg width="358" height="50" fill="none" xmlns="http://www.w3.org/2000/svg"><path d="M68.48 49.9a.85.85 0 0 1-.86-.76c0-.2 0-.29.1-.39l6.05-8.52c2.99-4.21 3.37-4.6 3.37-8.9V1.72A1.61 1.61 0 0 1 78.78.1h5a1.69 1.69 0 0 1 1.63 1.62v30.66c0 4.4-1.34 6.22-4.04 10.15l-5.1 6.9a1.37 1.37 0 0 1-1.15.57h-6.64v-.1ZM22.5 18.2a.67.67 0 0 1 .2-.38 8.97 8.97 0 0 0 4.23-7.76C26.93 3.16 20.97 0 15.5 0H1.64A1.63 1.63 0 0 0 0 1.63v33.71a1.67 1.67 0 0 0 1.64 1.63h14.71c5.58 0 11.64-3.25 11.64-9.86a9.34 9.34 0 0 0-5.39-8.62c.1.1-.1-.1-.1-.3ZM8.28 7a.86.86 0 0 1 .87-.87h3.36c2.22 0 5.87.48 5.87 4.4 0 3.74-4.04 4.32-5.67 4.32H9.14a.87.87 0 0 1-.87-.87V7Zm7.4 23.65c-.92.12-1.85.18-2.78.2H9.04a.87.87 0 0 1-.86-.87V22.7a.86.86 0 0 1 .86-.86h4.04c.87.01 1.74.08 2.6.2a4.31 4.31 0 0 1 3.56 4.4 4.4 4.4 0 0 1-3.56 4.21ZM58.67 15.04c.1-.1.2-.2.3-.2a.41.41 0 0 1 .38.39v20.11a1.61 1.61 0 0 0 1.63 1.63h5a1.69 1.69 0 0 0 1.64-1.63V1.63A1.61 1.61 0 0 0 65.98 0H60.7a1.54 1.54 0 0 0-1.34.77l-8.37 11.59c-.1.1-.2.19-.3.19-.09 0-.28-.1-.28-.2L42.13.78A1.54 1.54 0 0 0 40.78 0h-5.1a1.7 1.7 0 0 0-1.82 1.72v33.72a1.61 1.61 0 0 0 1.63 1.63h4.9a1.63 1.63 0 0 0 1.64-1.63V15.33a.41.41 0 0 1 .39-.39c.1 0 .29.1.29.2l6.06 8.61a1.68 1.68 0 0 0 1.34.68h.96a1.69 1.69 0 0 0 1.35-.68l6.25-8.71Z" fill="#2A6EBB"/><path d="M99.36 34.96V1.63h9.52c3.37 0 5.87.76 7.6 2.3a7.95 7.95 0 0 1 2.6 6.22 6.25 6.25 0 0 1-1.83 4.89 8.67 8.67 0 0 1-4.71 2.2c2.01.2 3.93.93 5.57 2.1a7.21 7.21 0 0 1 1.93 2.5c.52 1.17.78 2.45.77 3.73a8.29 8.29 0 0 1-.77 3.84 7.79 7.79 0 0 1-2.02 2.87 8.2 8.2 0 0 1-3.08 1.82c-1.27.42-2.6.65-3.94.67H99.36v.2Zm4.04-19.16h5.2a6.3 6.3 0 0 0 4.61-1.62 5.75 5.75 0 0 0 1.64-4.22c0-3.26-1.93-4.88-5.78-4.88h-5.67V15.8Zm0 15.71h7.4c1.52.07 3-.44 4.14-1.43 1.06-.96 1.54-2.5 1.54-4.5 0-4.22-2.6-6.33-7.8-6.33h-5.28v12.26ZM128.31 22.8c-.14 2.52.57 5.01 2.02 7.08a7.13 7.13 0 0 0 5.96 2.6c1.36.02 2.7-.35 3.85-1.06 1-.73 1.85-1.64 2.5-2.68l2.6 1.72a11.5 11.5 0 0 1-3.37 3.74 9.65 9.65 0 0 1-5.58 1.43c-1.67.03-3.34-.26-4.9-.86a9.7 9.7 0 0 1-5.96-6.32c-.62-1.76-.91-3.6-.87-5.46-.02-1.72.24-3.44.77-5.08a12.82 12.82 0 0 1 2.11-3.93 9.62 9.62 0 0 1 3.37-2.49c1.4-.58 2.9-.88 4.43-.86 1.58-.03 3.15.27 4.61.86a8.5 8.5 0 0 1 3.27 2.5c.93 1.15 1.58 2.49 1.93 3.92.43 1.63.66 3.3.67 4.98h-17.4v-.1Zm13.08-3.07a5.92 5.92 0 0 0-3.94-5.75c-.7-.26-1.46-.4-2.21-.38a6.21 6.21 0 0 0-4.14 1.44 8.37 8.37 0 0 0-2.4 4.79h12.7v-.1ZM152.45 29.02a6.22 6.22 0 0 0 2.22 2.5c1.07.61 2.31.91 3.55.86 3.28 0 4.91-1.15 4.91-3.45a4.63 4.63 0 0 0-.29-1.73c-.23-.53-.6-.99-1.06-1.34a7.21 7.21 0 0 0-1.92-1.05c-.9-.44-1.84-.82-2.79-1.15-1.15-.38-2.21-.86-3.08-1.25a9.17 9.17 0 0 1-2.02-1.43 5.77 5.77 0 0 1-1.54-4.12 5.21 5.21 0 0 1 2.12-4.5 9.27 9.27 0 0 1 5.67-1.63c1.7-.07 3.37.26 4.91.96a8.33 8.33 0 0 1 3.27 2.77l-2.7 2.11a11.6 11.6 0 0 0-2.3-2.01c-.93-.55-2-.82-3.08-.77a4.82 4.82 0 0 0-3.17.87 2.64 2.64 0 0 0-1.06 2c0 .47.09.93.29 1.35.2.43.54.8.96 1.05.57.38 1.19.7 1.83.96.77.29 1.73.67 2.88 1.05 1.86.57 3.57 1.56 5 2.88a6.2 6.2 0 0 1 1.73 4.6 6.54 6.54 0 0 1-.67 3.06 5.76 5.76 0 0 1-1.83 2.2 7.88 7.88 0 0 1-2.69 1.34c-1.1.31-2.23.47-3.37.48-1.93.08-3.85-.35-5.57-1.24a10.25 10.25 0 0 1-3.18-3.26l2.98-2.1ZM177.17 29.5a2.87 2.87 0 0 0 .68 2.3c.49.39 1.1.6 1.73.58.63.02 1.25-.11 1.82-.39a8.32 8.32 0 0 0 1.54-.96l1.54 2.6c-.7.54-1.48 1-2.3 1.33-1.03.35-2.1.5-3.18.48a5.95 5.95 0 0 1-4.14-1.34 5.6 5.6 0 0 1-1.44-4.21V14.27h-4.13v-3.16h4.13V4.6h3.85v6.51h6.25v3.16h-6.35V29.5ZM196.9 34.96V1.63h10.38c3.85 0 6.73.86 8.56 2.58 1.83 1.73 2.79 4.22 2.79 7.57 0 3.35-.96 5.65-2.98 7.38-2.02 1.72-4.81 2.49-8.56 2.49h-6.26v13.4h-3.94v-.09Zm3.93-16.86h6.54c1.8.08 3.57-.46 5-1.53 1.26-1.05 1.93-2.68 1.93-4.98 0-2.3-.58-3.93-1.83-4.98a7.37 7.37 0 0 0-5.1-1.53h-6.54V18.1ZM223.53 34.96V11.11H227l.28 2.1c.74-.72 1.59-1.33 2.5-1.81.93-.56 2-.86 3.08-.86.77 0 1.45.1 2.02.1.49.06.97.16 1.45.28l-.68 3.54c-1-.4-2.08-.6-3.17-.57-.98.01-1.94.28-2.79.76-.8.5-1.57 1.05-2.3 1.63v18.49h-3.86v.2ZM252.97 34.96l-.2-2.01a9.49 9.49 0 0 1-2.88 1.92c-1.13.47-2.34.7-3.56.67a11.44 11.44 0 0 1-3.08-.48 6.93 6.93 0 0 1-2.6-1.44 7.19 7.19 0 0 1-1.82-2.3 7.04 7.04 0 0 1-.68-3.25c-.04-1.52.44-3 1.35-4.22.96-1.1 2.14-1.98 3.46-2.59 1.49-.7 3.08-1.15 4.72-1.34 1.65-.26 3.32-.4 5-.38v-.29c0-2-.39-3.45-1.25-4.3a5.02 5.02 0 0 0-3.66-1.35 6.97 6.97 0 0 0-5.38 2.68l-2.7-1.91a8.23 8.23 0 0 1 3.47-2.88c1.58-.65 3.28-.98 5-.95 2.26-.14 4.5.58 6.25 2 1.44 1.35 2.21 3.65 2.21 6.8v15.53h-3.65v.1Zm-.39-12.45a22 22 0 0 0-3.46.29c-1.19.1-2.35.35-3.46.76-.98.35-1.87.9-2.6 1.63-.7.8-1.08 1.82-1.06 2.88-.01.66.15 1.33.48 1.91.28.53.67.99 1.16 1.34a4.83 4.83 0 0 0 3.17.96 7.8 7.8 0 0 0 3.27-.77 12.2 12.2 0 0 0 2.6-1.72V22.5h-.1ZM282.2 29.89a9.97 9.97 0 0 1-3.84 4.3 9.92 9.92 0 0 1-5.1 1.35 12.16 12.16 0 0 1-4.13-.77 9.49 9.49 0 0 1-3.56-2.3 12.06 12.06 0 0 1-2.5-3.83c-.7-1.73-1.03-3.6-.97-5.46-.06-1.96.27-3.91.96-5.75a11.5 11.5 0 0 1 2.5-3.92 9.63 9.63 0 0 1 3.47-2.2c1.26-.46 2.6-.69 3.94-.68 1.21-.02 2.42.18 3.56.58a6.9 6.9 0 0 1 2.6 1.53 6.4 6.4 0 0 1 1.73 1.92c.41.55.74 1.16.96 1.82l-2.88 1.82a6.7 6.7 0 0 0-6.06-4.5c-.91-.01-1.8.22-2.6.66a5.77 5.77 0 0 0-2.21 1.82 8.83 8.83 0 0 0-1.64 2.97c-.4 1.3-.6 2.66-.57 4.03a12.7 12.7 0 0 0 .57 4.02 9.85 9.85 0 0 0 1.64 2.97 6.41 6.41 0 0 0 2.4 1.82c.94.41 1.95.64 2.98.67a6.2 6.2 0 0 0 3.37-.96 7.16 7.16 0 0 0 2.7-3.26l2.69 1.35ZM292.4 29.5a2.86 2.86 0 0 0 .68 2.3c.49.39 1.1.6 1.73.58.63.02 1.25-.11 1.82-.39a8.3 8.3 0 0 0 1.54-.96l1.54 2.6c-.7.54-1.48 1-2.3 1.33-1.03.35-2.1.5-3.18.48a5.95 5.95 0 0 1-4.14-1.34 5.63 5.63 0 0 1-1.44-4.21V14.27h-4.13v-3.16h4.13V4.6h3.85v6.51h6.25v3.16h-6.35V29.5ZM305.39 7.38a2.37 2.37 0 0 1-1.83-.87 3.02 3.02 0 0 1 0-4.02 2.23 2.23 0 0 1 1.83-.86 2.38 2.38 0 0 1 1.82.86 3.02 3.02 0 0 1-.81 4.66c-.32.15-.66.23-1.01.23Zm-1.93 3.73h3.95v23.85h-3.95V11.11ZM333.28 29.89a9.96 9.96 0 0 1-3.85 4.3 9.92 9.92 0 0 1-5.1 1.35 12.17 12.17 0 0 1-4.13-.77 9.47 9.47 0 0 1-3.56-2.3 12.03 12.03 0 0 1-2.5-3.83c-.7-1.73-1.02-3.6-.96-5.46a15 15 0 0 1 .96-5.75c.56-1.46 1.4-2.8 2.5-3.92 1-1 2.22-1.75 3.56-2.2 1.26-.46 2.6-.69 3.94-.68 1.21-.02 2.42.18 3.56.58.97.31 1.86.83 2.6 1.53a8.02 8.02 0 0 1 1.73 1.92c.41.55.74 1.16.96 1.82l-2.88 1.82a6.7 6.7 0 0 0-6.06-4.5c-.91-.01-1.8.22-2.6.66a5.77 5.77 0 0 0-2.21 1.82 8.83 8.83 0 0 0-1.64 2.97c-.4 1.3-.6 2.66-.58 4.03a12.7 12.7 0 0 0 .58 4.02 9.87 9.87 0 0 0 1.64 2.97 6.42 6.42 0 0 0 2.4 1.82c.91.4 1.9.63 2.89.67a6.2 6.2 0 0 0 3.36-.96 7.8 7.8 0 0 0 2.7-3.26l2.69 1.35ZM340.69 22.8a11.3 11.3 0 0 0 2.02 7.08 7.13 7.13 0 0 0 5.96 2.6c1.36.02 2.7-.35 3.85-1.06 1-.73 1.85-1.64 2.5-2.68l2.6 1.72a11.5 11.5 0 0 1-3.37 3.74 9.65 9.65 0 0 1-5.58 1.43c-1.68.03-3.34-.26-4.9-.86a9.7 9.7 0 0 1-3.66-2.4 10.82 10.82 0 0 1-2.4-3.92c-.62-1.76-.91-3.6-.87-5.46a16.1 16.1 0 0 1 .77-5.08 12.86 12.86 0 0 1 2.11-3.93 9.62 9.62 0 0 1 3.37-2.49c1.4-.58 2.9-.88 4.43-.86 1.58-.03 3.15.27 4.61.86 1.28.55 2.4 1.41 3.27 2.5.93 1.15 1.58 2.49 1.93 3.92.48 1.62.7 3.3.67 4.98h-17.31v-.1Zm13.08-3.07a5.92 5.92 0 0 0-3.94-5.75c-.71-.26-1.46-.4-2.22-.38a6.21 6.21 0 0 0-4.13 1.44 8.37 8.37 0 0 0-2.4 4.79h12.69v-.1Z" fill="#747678"/></svg>
