<svg width="452" height="420" viewBox="0 0 452 420" fill="none" xmlns="http://www.w3.org/2000/svg">
<path d="M66.1945 388.435C154.453 430.521 297.549 430.522 385.806 388.436C474.065 346.349 474.065 278.115 385.806 236.03C297.548 193.943 154.451 193.943 66.1935 236.029C-22.0647 278.114 -22.0647 346.349 66.1945 388.435Z" fill="white"/>
<path d="M364.695 353.223C376.188 358.704 394.823 358.704 406.318 353.223C417.811 347.743 417.811 338.857 406.318 333.375C394.823 327.896 376.188 327.896 364.695 333.375C353.201 338.857 353.201 347.743 364.695 353.223Z" fill="#E7E7E5"/>
<path d="M59.4316 345.313L69.8375 339.302C69.8375 339.302 78.4223 332.991 82.6731 321.271C85.8898 312.403 85.446 305.656 83.1394 302.275C80.3021 298.114 72.9617 298.841 72.67 307.614C72.0961 324.888 67.0582 336.839 59.4316 345.313Z" fill="#27B6A1"/>
<path d="M59.4316 345.313C67.0582 336.839 72.0961 324.888 72.67 307.614C72.8511 302.168 75.7485 299.823 78.5994 299.823C80.34 299.823 82.0638 300.698 83.1394 302.275C84.2882 303.959 84.9751 306.479 84.9777 309.679C84.9801 312.903 84.2877 316.82 82.6731 321.271C78.4223 332.991 69.8375 339.302 69.8375 339.302L59.4316 345.313Z" fill="#3B74B5"/>
<path d="M59.4321 345.954C59.2285 345.954 59.0293 345.858 58.9048 345.677C58.7037 345.386 58.7762 344.988 59.0668 344.787C83.1428 328.119 78.4787 304.897 78.4292 304.664C78.3546 304.319 78.5748 303.977 78.92 303.903C79.2683 303.826 79.6065 304.049 79.6811 304.394C79.7331 304.634 84.5988 328.668 59.7959 345.84C59.6848 345.917 59.5576 345.954 59.4321 345.954Z" fill="white"/>
<path d="M38.6199 357.334C38.6199 357.334 34.9974 354.383 35.8735 350.389C36.7501 346.393 39.0867 343.52 35.0706 338.367C31.0538 333.212 30.0157 326.346 34.7398 322.622C38.3912 319.743 44.0895 323.823 46.1479 316.194C47.6489 310.633 47.1365 298.319 54.2282 294.222C61.3189 290.125 65.7223 296.293 64.6331 304.644C63.6595 312.116 62.2881 319.312 63.3453 321.27C65.4142 325.099 68.9701 324.585 68.8079 331.605C68.6573 338.142 62.4797 343.552 62.4797 343.552L38.6199 357.334Z" fill="#307CD2"/>
<path d="M50.5216 351.099C50.202 351.099 49.9257 350.86 49.8863 350.535C48.0532 335.351 52.4217 309.135 56.0341 301.342C56.1822 301.02 56.5604 300.878 56.8845 301.031C57.2052 301.18 57.3448 301.56 57.1957 301.88C53.6463 309.539 49.4055 335.869 51.1579 350.382C51.1999 350.732 50.9498 351.052 50.5991 351.094L50.5216 351.099Z" fill="white"/>
<path d="M50.1755 339.279L49.8943 339.214C45.4504 337.041 42.6336 329.318 42.5155 328.991C42.3959 328.659 42.5685 328.292 42.9013 328.172C43.2344 328.052 43.6002 328.224 43.7213 328.559C43.7478 328.633 46.4796 336.117 50.4573 338.063C50.7749 338.218 50.9066 338.602 50.7515 338.92C50.6398 339.147 50.4122 339.279 50.1755 339.279Z" fill="white"/>
<path d="M50.1024 344.396C49.8488 344.396 49.6086 344.243 49.5081 343.993C49.3764 343.665 49.536 343.292 49.8643 343.16C57.3432 340.162 62.0059 331.245 62.0518 331.155C62.2145 330.841 62.6002 330.716 62.9145 330.88C63.2292 331.041 63.3522 331.428 63.1901 331.743C62.9925 332.127 58.2589 341.175 50.341 344.349L50.1024 344.396Z" fill="white"/>
<path d="M311.564 275.461C311.564 275.461 305.962 266.398 305.422 256.532C304.881 246.665 307.046 242.571 310.015 241.394C312.984 240.219 313.209 243.84 314.744 245.986C316.278 248.132 319.381 246.904 320.526 240.231C321.672 233.56 325.877 222.252 334.575 220.094C344.183 217.713 339.029 228.987 336.618 233.387C334.205 237.786 332.325 243.777 333.916 245.408C335.505 247.039 337.971 244.025 340.337 246.819C343.192 250.192 334.317 262.318 329.223 265.26L311.564 275.461Z" fill="#307CD2"/>
<path d="M319.236 271.645L319.202 271.643C318.849 271.625 318.579 271.323 318.597 270.97C320.007 244.731 332.806 226.558 332.937 226.377C333.143 226.088 333.543 226.023 333.83 226.229C334.117 226.434 334.183 226.836 333.977 227.123C333.85 227.301 321.265 245.189 319.875 271.038C319.858 271.379 319.575 271.645 319.236 271.645Z" fill="white"/>
<path d="M319.968 264.08L319.657 264.001C316.071 262.014 314.084 256.121 314.001 255.871C313.891 255.535 314.071 255.173 314.408 255.061C314.743 254.946 315.108 255.133 315.218 255.467C315.236 255.524 317.13 261.137 320.278 262.879C320.586 263.05 320.699 263.439 320.527 263.749C320.411 263.961 320.192 264.08 319.968 264.08Z" fill="white"/>
<path d="M320.596 260.195C320.309 260.195 320.048 260.003 319.975 259.712C319.888 259.367 320.095 259.02 320.439 258.934C329.684 256.594 332.886 251.747 332.917 251.699C333.108 251.402 333.505 251.316 333.8 251.504C334.099 251.694 334.187 252.089 333.998 252.386C333.861 252.603 330.534 257.702 320.754 260.175L320.596 260.195Z" fill="white"/>
<path d="M172.232 255.536C172.232 255.536 159.95 252.54 159.311 229.532C158.621 204.696 162.321 175.722 147.835 173.366C133.349 171.008 125.221 188.78 125.407 209.429C125.57 227.561 132.868 266.902 172.231 274.612L172.232 255.536Z" fill="#27B6A1"/>
<path d="M172.23 274.612C132.867 266.902 125.57 227.561 125.407 209.429C125.404 209.203 125.403 208.974 125.403 208.748C125.4 189.626 132.552 173.155 145.293 173.155C146.116 173.155 146.964 173.224 147.834 173.366C158.267 175.063 159.267 190.566 159.268 208.388C159.268 212.616 159.212 216.975 159.212 221.311C159.212 224.074 159.235 226.828 159.311 229.532C159.95 252.54 172.232 255.536 172.232 255.536L172.23 274.612Z" fill="#3B74B5"/>
<path d="M172.233 272.247L172.117 272.237C163.259 270.623 156.052 265.749 150.69 257.749C134.777 233.998 139.791 189.664 141.437 181.919C141.51 181.573 141.85 181.354 142.197 181.426C142.543 181.5 142.763 181.84 142.69 182.186C141.062 189.844 136.091 233.656 151.755 257.035C156.915 264.736 163.843 269.427 172.347 270.976C172.695 271.04 172.926 271.374 172.862 271.722C172.805 272.031 172.536 272.247 172.233 272.247Z" fill="white"/>
<path d="M172.234 331.316C159.534 333.038 138.908 333.007 127.026 323.632C115.145 314.256 117.616 306.176 122.187 302.806C126.757 299.434 130.727 295.582 122.864 288.102C115.001 280.622 102.363 268.602 98.2764 250.569C94.1891 232.538 96.2019 221.269 104.244 217.51C112.049 213.866 114.104 219.657 118.881 231.601C123.657 243.548 134.408 233.307 143.598 237.036C152.789 240.764 152.428 248.146 153.008 254.492C153.587 260.837 156.623 262.591 161.826 262.591C167.03 262.591 172.23 265.596 172.231 271.606L172.234 331.316Z" fill="#307CD2"/>
<path d="M172.233 310.38L172.061 310.356C171.511 310.202 158.377 306.378 139.263 288.811C118.9 270.096 109.286 242.038 109.191 241.758C109.078 241.422 109.258 241.058 109.593 240.945C109.93 240.835 110.292 241.013 110.405 241.348C110.498 241.627 120.015 269.381 140.129 287.867C158.988 305.199 172.274 309.084 172.406 309.123C172.747 309.219 172.944 309.572 172.85 309.914C172.77 310.194 172.514 310.38 172.233 310.38Z" fill="white"/>
<path d="M144.581 293.284C144.324 293.284 144.082 293.129 143.984 292.877C139.874 282.309 138.943 259.718 138.906 258.762C138.892 258.408 139.167 258.111 139.521 258.095C139.848 258.099 140.171 258.357 140.185 258.712C140.194 258.942 141.146 282.045 145.177 292.412C145.305 292.741 145.141 293.112 144.812 293.241L144.581 293.284Z" fill="white"/>
<path d="M144.474 308.484C142.484 308.484 141.107 308.327 140.94 308.307C140.589 308.266 140.338 307.947 140.381 307.595C140.422 307.245 140.738 306.985 141.091 307.036C141.211 307.046 153.128 308.394 158.602 302.811C158.848 302.556 159.255 302.556 159.508 302.801C159.76 303.048 159.764 303.456 159.517 303.707C155.51 307.794 148.647 308.484 144.474 308.484Z" fill="white"/>
<path d="M184.858 348.465L305.29 278.9C306.514 278.192 306.516 277.044 305.291 276.335L294.149 269.885C292.924 269.177 290.939 269.175 289.713 269.883L169.249 339.448C168.024 340.156 168.024 341.304 169.249 342.011L180.42 348.465C181.645 349.172 183.632 349.172 184.858 348.465Z" fill="#DADAD8"/>
<path d="M301.96 10.3423L193.386 73.0572C190.323 74.8268 187.84 79.13 187.84 82.6681V340.332C187.84 343.872 190.323 345.306 193.386 343.536L301.961 280.822C305.025 279.053 307.507 274.748 307.507 271.211L307.506 13.5459C307.506 10.0078 305.024 8.57257 301.96 10.3423Z" fill="#32515C"/>
<path d="M193.385 73.0575L301.959 10.3427C304.699 8.76135 306.967 9.74553 307.419 12.5007C307.003 9.19834 304.727 5.53462 301.959 3.93536L297.444 1.3276C294.38 -0.442108 289.413 -0.442108 286.35 1.3276L177.776 64.0424C176.246 64.9266 174.859 66.4439 173.854 68.1841L189.464 77.1992C190.467 75.4603 191.854 73.943 193.385 73.0575Z" fill="#263D46"/>
<path d="M172.234 331.316C172.234 334.855 174.716 339.158 177.78 340.927L182.296 343.536C185.066 345.135 189.378 345.275 192.446 343.982C189.832 344.974 187.84 343.5 187.84 340.332V82.6683C187.84 80.8986 188.461 78.9379 189.465 77.1989L173.856 68.1839C172.853 69.9228 172.231 71.8834 172.231 73.6519L172.234 331.316Z" fill="#17272E"/>
<path d="M196.372 107.397L298.975 48.1297C300.815 47.0674 302.304 47.9285 302.304 50.0519L302.306 240.715C302.306 242.838 300.815 245.42 298.977 246.481L196.373 305.749C194.535 306.81 193.044 305.949 193.044 303.827V113.164C193.044 111.041 194.534 108.458 196.372 107.397Z" fill="white"/>
<path d="M247.673 51.4751C246.596 52.0979 245.723 53.6113 245.723 54.8556C245.723 56.1012 246.596 56.6048 247.673 55.982C248.752 55.3605 249.625 53.8471 249.625 52.6015C249.625 51.3572 248.752 50.8523 247.673 51.4751Z" fill="#263D46"/>
<path d="M247.676 285.271C243.421 287.729 239.973 293.705 239.973 298.621C239.973 303.535 243.421 305.528 247.676 303.07C251.929 300.614 255.379 294.637 255.379 289.721C255.379 284.807 251.929 282.814 247.676 285.271Z" fill="#263D46"/>
<path d="M229.245 71.3081C227.089 72.5536 225.344 75.5805 225.344 78.0703C225.344 80.5602 227.089 81.5688 229.246 80.3244C231.4 79.0801 233.146 76.052 233.146 73.5622C233.146 71.0723 231.399 70.0638 229.245 71.3081Z" fill="#263D46"/>
<path d="M238.787 70.4631C238.787 72.1226 240.028 72.7518 241.56 71.8663L267.232 57.0385C268.763 56.1543 270.005 54.0911 270.005 52.4316C270.004 50.7721 268.763 50.1429 267.231 51.0284L241.56 65.8562C240.028 66.7404 238.787 68.8036 238.787 70.4631Z" fill="#263D46"/>
<path d="M180.867 115.648C182.59 116.643 183.988 119.065 183.988 121.058C183.988 123.049 182.59 123.857 180.867 122.86C179.142 121.864 177.745 119.443 177.745 117.451C177.745 115.459 179.142 114.652 180.867 115.648Z" fill="#263D46"/>
<path d="M180.867 139.709C182.59 140.706 183.988 143.128 183.988 145.119C183.988 147.111 182.59 147.918 180.867 146.922C179.142 145.926 177.745 143.505 177.745 141.513C177.745 139.52 179.142 138.714 180.867 139.709Z" fill="#263D46"/>
<path d="M179.903 116.13C181.627 117.125 183.024 119.549 183.024 121.54C183.024 123.531 181.627 124.339 179.903 123.343C178.178 122.347 176.782 119.925 176.782 117.934C176.782 115.941 178.179 115.134 179.903 116.13Z" fill="#32515C"/>
<path d="M179.903 140.192C181.627 141.188 183.024 143.61 183.024 145.603C183.024 147.594 181.627 148.401 179.903 147.406C178.178 146.409 176.782 143.987 176.782 141.995C176.782 140.004 178.179 139.197 179.903 140.192Z" fill="#32515C"/>
<path d="M323.117 56.0821C323.117 53.9587 321.627 53.0988 319.788 54.1599L307.507 61.2528L217.184 113.426C215.346 114.489 213.856 117.07 213.856 119.193L213.858 309.856C213.858 311.979 215.347 312.839 217.185 311.778L307.539 259.585L319.789 252.511C321.627 251.449 323.118 248.867 323.118 246.745L323.117 56.0821Z" fill="white"/>
<path d="M323.117 56.0815H323.757C323.756 55.2242 323.544 54.4823 323.105 53.9287C322.67 53.3725 321.991 53.0573 321.275 53.0637C320.687 53.0637 320.077 53.2534 319.467 53.6032L307.187 60.6974L216.864 112.871C215.816 113.48 214.927 114.468 214.276 115.591C213.63 116.717 213.218 117.981 213.216 119.192L213.217 309.855C213.217 310.711 213.428 311.454 213.868 312.008C214.303 312.564 214.983 312.879 215.698 312.873C216.286 312.872 216.896 312.683 217.504 312.332L307.859 260.139L320.109 253.066C321.156 252.457 322.046 251.469 322.696 250.345C323.345 249.22 323.754 247.955 323.758 246.744L323.757 56.0815H323.117H322.476L322.477 246.744C322.48 247.655 322.146 248.743 321.587 249.704C321.034 250.668 320.259 251.502 319.469 251.956L307.219 259.03L216.865 311.222C216.405 311.487 216.006 311.591 215.698 311.591C215.323 311.584 215.081 311.464 214.869 311.208C214.661 310.951 214.498 310.505 214.498 309.855L214.497 119.192C214.494 118.281 214.828 117.193 215.386 116.232C215.939 115.269 216.714 114.434 217.504 113.981L307.827 61.8071L320.108 54.7142C320.568 54.4477 320.967 54.3439 321.275 54.3452C321.65 54.3516 321.892 54.472 322.105 54.727C322.312 54.9859 322.476 55.4318 322.476 56.0815H323.117Z" fill="#27B6A1"/>
<path d="M215.697 312.874C215.27 312.874 214.869 312.771 214.512 312.565C213.677 312.082 213.217 311.12 213.217 309.855L213.216 119.192C213.216 116.831 214.818 114.052 216.864 112.871L307.187 60.6973L307.827 61.8071L217.504 113.981C215.874 114.923 214.497 117.309 214.497 119.192L214.498 309.855C214.498 310.631 214.736 311.215 215.152 311.455C215.569 311.695 216.193 311.61 216.865 311.222L307.219 259.031L307.859 260.139L217.504 312.331C216.879 312.693 216.264 312.874 215.697 312.874Z" fill="#27B6A1"/>
<path d="M215.697 312.874V312.233C215.373 312.233 215.09 312.159 214.831 312.01H214.832C214.531 311.835 214.301 311.582 214.129 311.227C213.959 310.872 213.857 310.41 213.857 309.855L213.856 119.192C213.853 118.156 214.217 116.963 214.827 115.909C215.434 114.853 216.285 113.942 217.184 113.426L306.952 61.5725L217.184 113.426C216.236 113.978 215.43 114.885 214.835 115.913C214.243 116.943 213.86 118.095 213.856 119.192L213.857 309.855C213.857 310.309 213.925 310.726 214.076 311.099C214.226 311.468 214.472 311.801 214.832 312.01C215.1 312.166 215.401 312.231 215.697 312.23C216.196 312.228 216.692 312.059 217.184 311.778L217.185 311.777L306.985 259.906L307.306 260.46L307.859 260.139L307.539 259.584L217.185 311.776L217.184 311.777C216.635 312.095 216.127 312.235 215.697 312.233V312.874V313.515C216.402 313.515 217.123 313.292 217.825 312.885L308.735 260.374L307.453 258.156L216.545 310.667C216.195 310.87 215.886 310.951 215.697 310.948L215.471 310.901H215.472C215.416 310.869 215.334 310.79 215.261 310.613C215.189 310.439 215.137 310.178 215.138 309.855L215.137 119.192C215.133 118.407 215.439 117.423 215.944 116.554C216.443 115.682 217.141 114.926 217.824 114.535L308.702 62.0428L307.421 59.822L216.543 112.316C215.396 112.981 214.423 114.05 213.718 115.268C213.016 116.49 212.578 117.866 212.575 119.192L212.576 309.855C212.576 310.565 212.705 311.216 212.974 311.78C213.24 312.342 213.656 312.812 214.19 313.12H214.192C214.649 313.385 215.168 313.516 215.697 313.515V312.874Z" fill="#307CD2"/>
<path d="M307.859 260.14L307.219 259.031L319.469 251.956C321.099 251.013 322.477 248.627 322.477 246.745L322.476 56.0819C322.476 55.3053 322.237 54.7222 321.822 54.4813C321.408 54.2417 320.781 54.325 320.108 54.7146L307.827 61.8075L307.187 60.6977L319.467 53.6035C320.561 52.9731 321.626 52.8885 322.462 53.3716C323.296 53.8534 323.757 54.8171 323.757 56.0819L323.758 246.745C323.758 249.106 322.156 251.883 320.109 253.065L307.859 260.14Z" fill="#27B6A1"/>
<path d="M307.86 260.139L308.414 259.819L308.095 259.265L319.79 252.511C320.737 251.959 321.543 251.05 322.14 250.022C322.732 248.992 323.115 247.841 323.119 246.744L323.117 56.0816C323.116 55.6267 323.049 55.2089 322.898 54.8373C322.747 54.4682 322.501 54.1351 322.143 53.9262C321.875 53.7711 321.573 53.7058 321.277 53.7058C320.778 53.7083 320.281 53.8762 319.788 54.1594L308.062 60.9319L319.788 54.1594C320.338 53.8416 320.846 53.7019 321.277 53.7019C321.601 53.7032 321.883 53.7775 322.143 53.9262L322.149 53.93L322.143 53.9262C322.442 54.1005 322.673 54.3529 322.844 54.7092C323.015 55.0641 323.117 55.5254 323.117 56.0816L323.119 246.744C323.12 247.78 322.757 248.973 322.146 250.026C321.539 251.082 320.689 251.993 319.79 252.51L307.541 259.585L307.86 260.139L308.414 259.819L307.86 260.139L308.18 260.694L320.43 253.619C321.578 252.954 322.55 251.885 323.256 250.667C323.959 249.446 324.397 248.069 324.399 246.744L324.398 56.0816C324.397 55.3717 324.269 54.7194 324.001 54.1569C323.733 53.5943 323.317 53.124 322.783 52.8164C322.324 52.5512 321.806 52.4192 321.277 52.4205C320.57 52.4205 319.849 52.6447 319.148 53.0484L306.312 60.4629L307.593 62.6837L320.429 55.2692C320.778 55.0654 321.087 54.986 321.277 54.9872L321.501 55.0359C321.557 55.068 321.639 55.1461 321.712 55.323C321.784 55.4973 321.836 55.7587 321.836 56.0816L321.838 246.744C321.84 247.53 321.535 248.513 321.031 249.382C320.53 250.254 319.832 251.01 319.149 251.401L306.345 258.796L307.627 261.015L308.18 260.694L307.86 260.139Z" fill="#307CD2"/>
<path d="M268.486 100.388C279.98 93.7487 289.297 99.1308 289.297 112.409C289.297 125.688 279.98 141.834 268.486 148.474C256.993 155.113 247.675 149.731 247.675 136.452C247.675 123.174 256.993 107.027 268.486 100.388Z" fill="#307CD2"/>
<path d="M265.47 127.36C263.254 127.36 261.733 125.594 261.733 122.538C261.733 118.23 264.756 112.993 268.485 110.838C269.568 110.212 270.593 109.916 271.501 109.916C273.716 109.916 275.237 111.683 275.237 114.738C275.237 119.046 272.213 124.285 268.485 126.439C267.401 127.064 266.377 127.36 265.47 127.36Z" fill="white" fill-opacity="0.5"/>
<path d="M259.229 151.301C257.95 151.301 256.745 151.11 255.631 150.74V148.835C255.631 141.758 260.598 133.151 266.723 129.613L270.554 127.401C272.333 126.372 274.016 125.886 275.507 125.886C279.146 125.886 281.646 128.788 281.646 133.809V135.45C278.06 140.908 273.479 145.589 268.485 148.474C265.158 150.396 262.016 151.301 259.229 151.301Z" fill="white" fill-opacity="0.5"/>
<path d="M228.218 177.757L254.998 162.288C256.224 161.579 257.217 162.154 257.217 163.57V164.454C257.217 165.87 256.224 167.591 254.998 168.298L228.218 183.767C226.994 184.475 226 183.901 226 182.485V181.601C226 180.185 226.994 178.464 228.218 177.757Z" fill="#27B6A1"/>
<path d="M227.227 184.07C226.5 184.07 226 183.49 226 182.485V181.601C226 180.185 226.994 178.464 228.218 177.757L254.998 162.288C255.355 162.082 255.691 161.984 255.99 161.984C256.717 161.984 257.217 162.565 257.217 163.569V164.454C257.217 165.87 256.224 167.591 254.998 168.298L228.218 183.767C227.862 183.973 227.526 184.07 227.227 184.07Z" fill="#307CD2"/>
<path d="M227.109 196.428L308.136 149.626C308.749 149.272 309.245 149.559 309.245 150.266V159.725C309.245 160.432 308.749 161.293 308.136 161.647L227.109 208.45C226.497 208.804 226 208.518 226 207.81V198.351C226 197.643 226.497 196.783 227.109 196.428Z" fill="#27B6A1"/>
<path d="M226.614 208.603C226.25 208.603 226 208.312 226 207.811V198.351C226 197.643 226.497 196.784 227.109 196.429L308.136 149.626C308.314 149.523 308.483 149.474 308.632 149.474C308.997 149.474 309.245 149.764 309.245 150.266V159.725C309.245 160.432 308.749 161.293 308.136 161.647L307.556 161.983C306.038 160.041 304.927 158.757 303.922 158.757C303.643 158.757 303.371 158.857 303.101 159.069C302.149 159.817 302.841 161.438 304.397 163.808L227.109 208.45C226.931 208.554 226.763 208.603 226.614 208.603Z" fill="#307CD2"/>
<path d="M228.218 219.831L254.998 204.362C256.224 203.654 257.217 204.228 257.217 205.644V206.528C257.217 207.943 256.224 209.665 254.998 210.372L228.218 225.841C226.994 226.55 226 225.975 226 224.559V223.675C226 222.259 226.994 220.539 228.218 219.831Z" fill="#27B6A1"/>
<path d="M227.227 226.145C226.5 226.145 226 225.564 226 224.559V223.675C226 222.259 226.994 220.539 228.218 219.831L254.998 204.362C255.355 204.156 255.691 204.059 255.99 204.059C256.717 204.059 257.217 204.639 257.217 205.644V206.528C257.217 207.943 256.224 209.665 254.998 210.372L228.218 225.841C227.862 226.047 227.526 226.145 227.227 226.145Z" fill="#307CD2"/>
<path d="M227.109 238.503L308.136 191.7C308.749 191.346 309.245 191.632 309.245 192.341V201.799C309.245 202.506 308.749 203.368 308.136 203.721L227.109 250.524C226.497 250.878 226 250.592 226 249.883V240.425C226 239.718 226.497 238.856 227.109 238.503Z" fill="#27B6A1"/>
<path d="M226.614 250.676C226.25 250.676 226 250.386 226 249.884V240.425C226 239.718 226.497 238.857 227.109 238.503L308.136 191.7C308.314 191.598 308.483 191.549 308.632 191.549C308.995 191.549 309.245 191.839 309.245 192.341V201.799C309.245 202.507 308.749 203.368 308.136 203.722L227.109 250.525C226.931 250.627 226.763 250.676 226.614 250.676Z" fill="#307CD2"/>
<path d="M259.437 243.874L291.419 225.4C292.645 224.691 293.638 225.265 293.638 226.682V236.581C293.638 237.997 292.645 239.718 291.419 240.425L259.437 258.9C258.211 259.607 257.217 259.035 257.217 257.619V247.718C257.217 246.302 258.211 244.581 259.437 243.874Z" fill="#27B6A1"/>
<path d="M258.445 259.203C257.718 259.203 257.217 258.624 257.217 257.619V247.719C257.217 246.303 258.211 244.582 259.437 243.874L291.419 225.401C291.775 225.194 292.111 225.097 292.409 225.097C293.138 225.097 293.638 225.677 293.638 226.682V236.581C293.638 237.997 292.645 239.718 291.419 240.426L259.437 258.901C259.08 259.106 258.744 259.203 258.445 259.203Z" fill="#307CD2"/>
<path d="M335.26 202.124C335.26 202.124 319.525 180.408 318.565 177.824C317.84 175.876 318.615 172.978 318.795 171.632C318.974 170.286 319.234 167.287 319.458 166.453C319.85 164.997 317.963 165.296 316.905 166.62C315.822 167.976 315.475 170.622 314.935 171.058C314.397 171.493 310.192 165.382 307.998 162.554C305.805 159.726 304.434 158.021 303.1 159.069C302.14 159.825 302.854 161.472 304.444 163.881C306.035 166.289 306.739 167.405 306.979 167.922C307.218 168.439 305.91 168.48 305.205 169.567C304.654 170.416 305.168 171.789 304.439 172.443C303.707 173.099 303.027 174.277 303.828 175.603C304.847 177.294 306.893 179.71 309.245 181.341C311.597 182.973 312.552 183.545 313.939 185.764C315.327 187.982 327.864 210.629 328.706 211.987C329.546 213.346 331.18 216.115 333.654 216.193C336.128 216.273 356.361 198.842 357.403 197.973C360.739 195.191 361.79 194.783 362.365 197.289C362.546 198.073 362.664 198.968 362.789 199.978C363.19 203.151 365.35 214.507 365.35 214.507C365.35 214.507 375.584 219.469 384.01 217.022C392.437 214.577 395.263 211.056 395.263 211.056L391.047 204.182C392.195 201.345 397.495 189.871 399.159 181.83L372.773 177.567C372.232 177.449 371.367 177.233 370.263 176.942C368.814 176.56 365.173 175.28 362.364 177.724C353.284 185.625 335.26 202.124 335.26 202.124Z" fill="#FBBDC6"/>
<path d="M387.572 335.317L382.842 341.893C382.842 341.893 385.032 343.179 389.712 343.355C393.944 343.517 395.108 342.126 395.265 341.793C395.978 340.259 394.864 337.492 394.558 335.116L387.572 335.317Z" fill="#263D46"/>
<path d="M383.108 338.735C383.108 338.735 377.376 338.37 373.412 337.87C369.448 337.37 366.312 339.306 367.246 340.939C368.177 342.571 370.357 343.929 373.754 345.071C376.664 346.051 380.152 346.764 383.19 347.674C386.304 348.605 388.297 349.672 390.061 349.065C392.027 348.387 392.872 347.602 392.704 346.169C392.538 344.736 391.112 340.123 391.112 340.123L383.108 338.735Z" fill="#263D46"/>
<path d="M395.264 328.709C395.264 328.709 394.547 334.682 394.491 335.965C394.436 337.247 388.666 337.658 387.572 335.317L387.393 328.014L395.264 328.709Z" fill="#FBBDC6"/>
<path d="M389.445 332.385L391.51 341.446C391.51 341.446 391.704 342.552 386.986 343.254C382.267 343.959 374.87 340.786 373.61 340.141C372.351 339.496 372.201 338.213 376.834 338.469C381.467 338.727 383.109 338.736 383.109 338.736L381.605 334.718L389.445 332.385Z" fill="#FBBDC6"/>
<path d="M399.159 181.829L402.42 180.928C402.42 180.928 409.254 202.542 410.008 204.624C410.764 206.706 411.616 208.925 410.146 211.501C408.396 214.566 399.159 226.908 399.159 226.908L393.297 221.169L399.947 208.977L394.064 197.051L399.159 181.829Z" fill="#FBBDC6"/>
<path d="M365.579 153.734C365.579 153.734 362.963 149.547 365.717 144.418C368.964 138.376 376.221 135.429 384.858 136.559C388.848 137.082 393.557 140.359 396.14 145.363C398.978 150.858 399.243 161.933 399.948 166.121L365.579 153.734Z" fill="#263D46"/>
<path d="M365.382 156.099C365.382 156.099 363.33 160.009 363.685 160.364C364.041 160.719 365.409 161.007 365.409 161.007L365.382 156.099Z" fill="#FBBDC6"/>
<path d="M371.609 143.741C369.378 145.197 365.536 147.859 365.367 156.642C365.194 165.658 366.468 168.564 367.8 169.609C368.699 170.314 373.959 169.957 376.219 169.426C378.477 168.895 384.973 165.685 387.311 160.804C390.06 155.06 389.504 146.651 385.411 144.211C379.654 140.775 373.498 142.51 371.609 143.741Z" fill="#FBBDC6"/>
<path d="M395.264 211.055C399.214 217.205 402.968 222.622 403.768 229.533C405.46 244.129 399.91 260.815 398.733 271.607C398.733 271.607 402.461 276.455 402.457 282.152C402.454 286.612 395.265 328.709 395.265 328.709C395.265 328.709 390.035 330.303 387.393 328.013L382.451 250.569L385.054 241.142L395.264 211.055Z" fill="#27B6A1"/>
<path d="M391.491 329.249C390.618 329.249 389.702 329.147 388.87 328.852C388.341 325.63 387.502 320.554 386.568 315.093L382.451 250.572L384.515 282.911L384.858 255.177L388.841 243.056C396.489 240.396 399.16 235.545 399.16 235.545C392.27 239.397 385.054 241.142 385.054 241.142C396.357 237.779 400.053 232.95 401.355 226.078C401.455 225.547 401.503 225.013 401.503 224.479C401.504 222.484 400.857 220.491 399.953 218.616C401.856 222.043 403.306 225.539 403.768 229.533C403.99 231.444 404.087 233.389 404.087 235.352C404.082 248.395 399.755 262.227 398.733 271.607C398.733 271.607 402.461 276.455 402.457 282.153C402.454 286.612 395.265 328.709 395.265 328.709C395.265 328.709 393.493 329.249 391.491 329.249ZM395.955 212.13C395.702 211.75 395.468 211.392 395.264 211.056C395.494 211.416 395.726 211.773 395.955 212.13Z" fill="#A72B76"/>
<path d="M382.451 250.57L385.054 241.142C385.054 241.142 392.27 239.396 399.16 235.544C399.16 235.544 396.489 240.396 388.841 243.056L384.858 255.176L384.515 282.911L382.451 250.57Z" fill="#27B6A1"/>
<path d="M384.515 282.911L382.451 250.572L385.054 241.142C385.054 241.142 392.27 239.396 399.16 235.544C399.16 235.544 396.489 240.396 388.841 243.056L384.858 255.176L384.515 282.911Z" fill="#912C69"/>
<path d="M395.263 211.056C397.377 214.507 402.427 220.408 401.355 226.079C400.052 232.95 396.357 237.78 385.054 241.142L374.452 279.554C374.452 279.554 379.972 284.723 381.661 289.639C383.346 294.555 389.444 332.385 389.444 332.385C389.444 332.385 387.559 335.464 381.604 334.718C381.604 334.718 360.842 287.274 359.374 284.219C357.908 281.164 356.957 278.88 357.616 273.904C358.277 268.929 365.35 214.507 365.35 214.507L395.263 211.056Z" fill="#27B6A1"/>
<path d="M383.393 334.835C382.842 334.835 382.247 334.799 381.604 334.718C381.604 334.718 360.841 287.273 359.373 284.218C358.231 281.837 357.402 279.926 357.403 276.842C357.403 275.97 357.471 275.002 357.616 273.904C358.277 268.929 365.35 214.507 365.35 214.507C365.35 214.507 371.938 217.7 378.893 217.7C380.608 217.7 382.344 217.507 384.01 217.022C392.437 214.577 395.263 211.056 395.263 211.056C397.178 214.183 401.506 219.323 401.502 224.479C401.502 225.014 401.454 225.547 401.354 226.078C400.052 232.95 396.357 237.779 385.053 241.142L382.45 250.572L374.451 279.554C374.451 279.554 379.972 284.723 381.66 289.639C383.346 294.554 389.444 332.385 389.444 332.385C389.444 332.385 387.944 334.835 383.393 334.835Z" fill="#C13188"/>
<path d="M399.159 181.83L372.774 177.567C372.233 177.449 371.362 177.23 370.259 176.941L370.257 176.939C370.257 176.939 369.132 193.491 362.366 197.289H362.364C362.524 198.078 362.664 198.967 362.789 199.978C363.19 203.151 365.35 214.507 365.35 214.507C365.35 214.507 375.584 219.469 384.011 217.022C392.437 214.577 395.263 211.056 395.263 211.056L391.048 204.182C392.195 201.345 397.495 189.871 399.159 181.83Z" fill="#27B6A1"/>
<path d="M394.064 197.052C395.968 192.414 398.186 186.534 399.159 181.829C398.186 186.534 395.968 192.414 394.064 197.052Z" fill="#FBCAD2"/>
<path d="M378.894 217.7C371.939 217.7 365.35 214.507 365.35 214.507C365.35 214.507 363.19 203.15 362.789 199.978C362.664 198.966 362.524 198.078 362.364 197.289H362.366C369.132 193.491 370.257 176.939 370.257 176.939L370.259 176.941C371.362 177.23 372.233 177.449 372.774 177.567L399.159 181.829C398.186 186.534 395.967 192.414 394.064 197.052C392.715 200.341 391.524 203.004 391.048 204.182L395.263 211.056C395.263 211.056 392.437 214.577 384.011 217.022C382.344 217.507 380.609 217.7 378.894 217.7Z" fill="white"/>
<path d="M392.199 201.479C392.091 201.728 383.717 206.216 381.229 206.903C385.151 206.71 388.411 205.787 391.048 204.181L392.199 201.479Z" fill="#CCDCE8"/>
<path d="M370.951 144.185C370.951 144.185 369.721 152.518 372.7 157.406C372.7 157.406 373.818 154.088 376.635 154.722C379.471 155.361 379.589 159.045 377.62 161.134C375.65 163.222 373.459 162.468 373.459 162.468C373.459 162.468 373.017 168.49 372.778 173.539C372.549 178.406 371.193 189.595 376.872 194.093C382.553 198.592 396.788 200.111 403.46 190.779C407.173 185.588 402.241 176.411 399.948 166.121C397.838 156.66 396.652 142.639 386.618 140.39C376.585 138.141 370.951 144.185 370.951 144.185Z" fill="#263D46"/>
<path d="M407.757 30.3703L405.641 31.5928C405.811 30.8137 405.931 30.041 405.931 29.2964C405.931 25.0087 402.922 23.2723 399.212 25.4162C398.132 26.039 397.128 26.9398 396.223 27.9842L396.225 27.9534C396.225 22.1817 392.176 19.8418 387.179 22.7277C382.184 25.6135 378.134 32.6308 378.134 38.4025C378.134 38.6972 378.151 38.9753 378.172 39.2508C377.116 39.0625 375.854 39.3226 374.498 40.1056C370.786 42.2495 367.778 47.4612 367.778 51.749C367.778 52.3397 367.841 52.8754 367.949 53.3662L366.821 54.0159C363.758 55.7856 361.275 59.2378 361.275 61.7277C361.275 64.2176 363.758 64.8007 366.821 63.0322L407.757 39.3867C410.82 37.617 413.304 34.1647 413.304 31.6748C413.304 29.1849 410.82 28.6006 407.757 30.3703Z" fill="white"/>
</svg>
